<?xml version="1.0" encoding="UTF-8" standalone="no"?>
<!-- Created with Inkscape (http://www.inkscape.org/) -->

<svg
   xmlns:dc="http://purl.org/dc/elements/1.1/"
   xmlns:cc="http://creativecommons.org/ns#"
   xmlns:rdf="http://www.w3.org/1999/02/22-rdf-syntax-ns#"
   xmlns:svg="http://www.w3.org/2000/svg"
   xmlns="http://www.w3.org/2000/svg"
   xmlns:sodipodi="http://sodipodi.sourceforge.net/DTD/sodipodi-0.dtd"
   xmlns:inkscape="http://www.inkscape.org/namespaces/inkscape"
   width="263.33206mm"
   height="149.39896mm"
   viewBox="0 0 933.06637 529.36638"
   id="svg2"
   version="1.1"
   inkscape:version="0.91 r13725"
   sodipodi:docname="indegree.svg">
  <defs
     id="defs4">
    <clipPath
       id="clipPath6764"
       clipPathUnits="userSpaceOnUse">
      <path
         style="clip-rule:evenodd"
         inkscape:connector-curvature="0"
         id="path6766"
         d="m 51,89.4 739.68,0 0,416.52 -739.68,0 0,-416.52 z" />
    </clipPath>
    <clipPath
       id="clipPath6776"
       clipPathUnits="userSpaceOnUse">
      <path
         style="clip-rule:evenodd"
         inkscape:connector-curvature="0"
         id="path6778"
         d="m 51,89.4 739.68,0 0,416.52 -739.68,0 0,-416.52 z" />
    </clipPath>
    <clipPath
       id="clipPath6788"
       clipPathUnits="userSpaceOnUse">
      <path
         style="clip-rule:evenodd"
         inkscape:connector-curvature="0"
         id="path6790"
         d="m 51,89.4 739.68,0 0,416.52 -739.68,0 0,-416.52 z" />
    </clipPath>
    <clipPath
       id="clipPath6800"
       clipPathUnits="userSpaceOnUse">
      <path
         style="clip-rule:evenodd"
         inkscape:connector-curvature="0"
         id="path6802"
         d="m 51,89.4 739.68,0 0,416.52 -739.68,0 0,-416.52 z" />
    </clipPath>
    <clipPath
       id="clipPath6812"
       clipPathUnits="userSpaceOnUse">
      <path
         style="clip-rule:evenodd"
         inkscape:connector-curvature="0"
         id="path6814"
         d="m 51,89.4 739.68,0 0,416.52 -739.68,0 0,-416.52 z" />
    </clipPath>
    <clipPath
       id="clipPath6824"
       clipPathUnits="userSpaceOnUse">
      <path
         style="clip-rule:evenodd"
         inkscape:connector-curvature="0"
         id="path6826"
         d="m 51,89.4 739.68,0 0,416.52 -739.68,0 0,-416.52 z" />
    </clipPath>
    <clipPath
       id="clipPath6836"
       clipPathUnits="userSpaceOnUse">
      <path
         style="clip-rule:evenodd"
         inkscape:connector-curvature="0"
         id="path6838"
         d="m 51,89.4 739.68,0 0,416.52 -739.68,0 0,-416.52 z" />
    </clipPath>
    <clipPath
       id="clipPath6848"
       clipPathUnits="userSpaceOnUse">
      <path
         style="clip-rule:evenodd"
         inkscape:connector-curvature="0"
         id="path6850"
         d="m 51,89.4 739.68,0 0,416.52 -739.68,0 0,-416.52 z" />
    </clipPath>
    <clipPath
       id="clipPath6860"
       clipPathUnits="userSpaceOnUse">
      <path
         style="clip-rule:evenodd"
         inkscape:connector-curvature="0"
         id="path6862"
         d="m 51,89.4 739.68,0 0,416.52 -739.68,0 0,-416.52 z" />
    </clipPath>
    <clipPath
       id="clipPath6872"
       clipPathUnits="userSpaceOnUse">
      <path
         style="clip-rule:evenodd"
         inkscape:connector-curvature="0"
         id="path6874"
         d="m 51,89.4 739.68,0 0,416.52 -739.68,0 0,-416.52 z" />
    </clipPath>
    <clipPath
       id="clipPath6884"
       clipPathUnits="userSpaceOnUse">
      <path
         style="clip-rule:evenodd"
         inkscape:connector-curvature="0"
         id="path6886"
         d="m 51,89.4 739.68,0 0,416.52 -739.68,0 0,-416.52 z" />
    </clipPath>
    <clipPath
       id="clipPath6896"
       clipPathUnits="userSpaceOnUse">
      <path
         style="clip-rule:evenodd"
         inkscape:connector-curvature="0"
         id="path6898"
         d="m 51,89.4 739.68,0 0,416.52 -739.68,0 0,-416.52 z" />
    </clipPath>
    <clipPath
       id="clipPath6908"
       clipPathUnits="userSpaceOnUse">
      <path
         style="clip-rule:evenodd"
         inkscape:connector-curvature="0"
         id="path6910"
         d="m 51,89.4 739.68,0 0,416.52 -739.68,0 0,-416.52 z" />
    </clipPath>
    <clipPath
       id="clipPath6920"
       clipPathUnits="userSpaceOnUse">
      <path
         style="clip-rule:evenodd"
         inkscape:connector-curvature="0"
         id="path6922"
         d="m 51,89.4 739.68,0 0,416.52 -739.68,0 0,-416.52 z" />
    </clipPath>
    <clipPath
       id="clipPath6932"
       clipPathUnits="userSpaceOnUse">
      <path
         style="clip-rule:evenodd"
         inkscape:connector-curvature="0"
         id="path6934"
         d="m 51,89.4 739.68,0 0,416.52 -739.68,0 0,-416.52 z" />
    </clipPath>
    <clipPath
       id="clipPath6944"
       clipPathUnits="userSpaceOnUse">
      <path
         style="clip-rule:evenodd"
         inkscape:connector-curvature="0"
         id="path6946"
         d="m 51,89.4 739.68,0 0,416.52 -739.68,0 0,-416.52 z" />
    </clipPath>
    <clipPath
       id="clipPath6956"
       clipPathUnits="userSpaceOnUse">
      <path
         style="clip-rule:evenodd"
         inkscape:connector-curvature="0"
         id="path6958"
         d="m 51,89.4 739.68,0 0,416.52 -739.68,0 0,-416.52 z" />
    </clipPath>
    <clipPath
       id="clipPath6968"
       clipPathUnits="userSpaceOnUse">
      <path
         style="clip-rule:evenodd"
         inkscape:connector-curvature="0"
         id="path6970"
         d="m 51,89.4 739.68,0 0,416.52 -739.68,0 0,-416.52 z" />
    </clipPath>
    <clipPath
       id="clipPath6980"
       clipPathUnits="userSpaceOnUse">
      <path
         style="clip-rule:evenodd"
         inkscape:connector-curvature="0"
         id="path6982"
         d="m 51,89.4 739.68,0 0,416.52 -739.68,0 0,-416.52 z" />
    </clipPath>
    <clipPath
       id="clipPath6992"
       clipPathUnits="userSpaceOnUse">
      <path
         style="clip-rule:evenodd"
         inkscape:connector-curvature="0"
         id="path6994"
         d="m 51,89.4 739.68,0 0,416.52 -739.68,0 0,-416.52 z" />
    </clipPath>
    <clipPath
       id="clipPath7004"
       clipPathUnits="userSpaceOnUse">
      <path
         style="clip-rule:evenodd"
         inkscape:connector-curvature="0"
         id="path7006"
         d="m 51,89.4 739.68,0 0,416.52 -739.68,0 0,-416.52 z" />
    </clipPath>
    <clipPath
       id="clipPath7016"
       clipPathUnits="userSpaceOnUse">
      <path
         style="clip-rule:evenodd"
         inkscape:connector-curvature="0"
         id="path7018"
         d="m 51,89.4 739.68,0 0,416.52 -739.68,0 0,-416.52 z" />
    </clipPath>
    <clipPath
       id="clipPath7028"
       clipPathUnits="userSpaceOnUse">
      <path
         style="clip-rule:evenodd"
         inkscape:connector-curvature="0"
         id="path7030"
         d="m 51,89.4 739.68,0 0,416.52 -739.68,0 0,-416.52 z" />
    </clipPath>
    <clipPath
       id="clipPath7040"
       clipPathUnits="userSpaceOnUse">
      <path
         style="clip-rule:evenodd"
         inkscape:connector-curvature="0"
         id="path7042"
         d="m 51,89.4 739.68,0 0,416.52 -739.68,0 0,-416.52 z" />
    </clipPath>
    <clipPath
       id="clipPath7052"
       clipPathUnits="userSpaceOnUse">
      <path
         style="clip-rule:evenodd"
         inkscape:connector-curvature="0"
         id="path7054"
         d="m 51,89.4 739.68,0 0,416.52 -739.68,0 0,-416.52 z" />
    </clipPath>
    <clipPath
       id="clipPath7068"
       clipPathUnits="userSpaceOnUse">
      <path
         style="clip-rule:evenodd"
         inkscape:connector-curvature="0"
         id="path7070"
         d="m 51,89.4 739.68,0 0,416.52 -739.68,0 0,-416.52 z" />
    </clipPath>
    <clipPath
       id="clipPath7084"
       clipPathUnits="userSpaceOnUse">
      <path
         style="clip-rule:evenodd"
         inkscape:connector-curvature="0"
         id="path7086"
         d="m 51,89.4 739.68,0 0,416.52 -739.68,0 0,-416.52 z" />
    </clipPath>
    <clipPath
       id="clipPath7100"
       clipPathUnits="userSpaceOnUse">
      <path
         style="clip-rule:evenodd"
         inkscape:connector-curvature="0"
         id="path7102"
         d="m 51,89.4 739.68,0 0,416.52 -739.68,0 0,-416.52 z" />
    </clipPath>
    <clipPath
       id="clipPath7116"
       clipPathUnits="userSpaceOnUse">
      <path
         style="clip-rule:evenodd"
         inkscape:connector-curvature="0"
         id="path7118"
         d="m 51,89.4 739.68,0 0,416.52 -739.68,0 0,-416.52 z" />
    </clipPath>
    <clipPath
       id="clipPath7132"
       clipPathUnits="userSpaceOnUse">
      <path
         style="clip-rule:evenodd"
         inkscape:connector-curvature="0"
         id="path7134"
         d="m 51,89.4 739.68,0 0,416.52 -739.68,0 0,-416.52 z" />
    </clipPath>
    <clipPath
       id="clipPath7148"
       clipPathUnits="userSpaceOnUse">
      <path
         style="clip-rule:evenodd"
         inkscape:connector-curvature="0"
         id="path7150"
         d="m 51,89.4 739.68,0 0,416.52 -739.68,0 0,-416.52 z" />
    </clipPath>
  </defs>
  <sodipodi:namedview
     id="base"
     pagecolor="#ffffff"
     bordercolor="#666666"
     borderopacity="1.0"
     inkscape:pageopacity="0.0"
     inkscape:pageshadow="2"
     inkscape:zoom="0.70910507"
     inkscape:cx="220.20463"
     inkscape:cy="153.2582"
     inkscape:document-units="px"
     inkscape:current-layer="layer1"
     showgrid="false"
     inkscape:window-width="1615"
     inkscape:window-height="1026"
     inkscape:window-x="65"
     inkscape:window-y="24"
     inkscape:window-maximized="1"
     fit-margin-top="0"
     fit-margin-left="0"
     fit-margin-right="0"
     fit-margin-bottom="0" />
  <metadata
     id="metadata7">
    <rdf:RDF>
      <cc:Work
         rdf:about="">
        <dc:format>image/svg+xml</dc:format>
        <dc:type
           rdf:resource="http://purl.org/dc/dcmitype/StillImage" />
        <dc:title></dc:title>
      </cc:Work>
    </rdf:RDF>
  </metadata>
  <g
     inkscape:label="Ebene 1"
     inkscape:groupmode="layer"
     id="layer1"
     transform="translate(1251.5613,-78.421326)">
    <g
       transform="matrix(1.25,0,0,-1.25,-1312.0484,715.87867)"
       inkscape:label="MeanAcc_indegree"
       id="g6726">
      <path
         inkscape:connector-curvature="0"
         id="path6728"
         style="fill:#ffffff;fill-opacity:1;fill-rule:evenodd;stroke:none"
         d="m 51.253,89.336 739.57,0 0,416.61 -739.57,0 0,-416.61 z" />
      <path
         inkscape:connector-curvature="0"
         id="path6730"
         style="fill:none;stroke:#d9d9d9;stroke-width:1.21379995;stroke-linecap:butt;stroke-linejoin:round;stroke-miterlimit:10;stroke-dasharray:none;stroke-opacity:1"
         d="m 128,245.31 645.02,0 M 128,267.65 l 645.02,0 M 128,289.98 l 645.02,0 M 128,312.32 l 645.02,0 M 128,334.46 l 645.02,0 M 128,356.79 l 645.02,0 M 128,379.13 l 645.02,0 M 128,401.27 l 645.02,0 M 128,423.6 l 645.02,0 M 128,445.92 l 645.02,0" />
      <path
         inkscape:connector-curvature="0"
         id="path6732"
         style="fill:#4f81bd;fill-opacity:1;fill-rule:nonzero;stroke:none"
         d="m 141.76,413.5 12.43,0 0,-190.39 -12.43,0 0,190.39 z m 71.66,-12.43 12.43,0 0,-177.96 -12.43,0 0,177.96 z m 71.67,-14.17 12.43,0 0,-163.79 -12.43,0 0,163.79 z m 71.66,-13.21 12.43,0 0,-150.58 -12.43,0 0,150.58 z m 71.67,-11.46 12.43,0 0,-139.12 -12.43,0 0,139.12 z m 71.66,-13.4 12.43,0 0,-125.72 -12.43,0 0,125.72 z m 71.67,-14.76 12.43,0 0,-110.96 -12.43,0 0,110.96 z m 71.66,-11.85 12.43,0 0,-99.11 -12.43,0 0,99.11 z m 71.67,-10.29 12.43,0 0,-88.82 -12.43,0 0,88.82 z" />
      <path
         inkscape:connector-curvature="0"
         id="path6734"
         style="fill:none;stroke:#000000;stroke-width:1.21379995;stroke-linecap:butt;stroke-linejoin:round;stroke-miterlimit:10;stroke-dasharray:none;stroke-opacity:1"
         d="m 141.76,413.5 12.43,0 0,-190.39 -12.43,0 0,190.39 z m 71.66,-12.43 12.43,0 0,-177.96 -12.43,0 0,177.96 z m 71.67,-14.17 12.43,0 0,-163.79 -12.43,0 0,163.79 z m 71.66,-13.21 12.43,0 0,-150.58 -12.43,0 0,150.58 z m 71.67,-11.46 12.43,0 0,-139.12 -12.43,0 0,139.12 z m 71.66,-13.4 12.43,0 0,-125.72 -12.43,0 0,125.72 z m 71.67,-14.76 12.43,0 0,-110.96 -12.43,0 0,110.96 z m 71.66,-11.85 12.43,0 0,-99.11 -12.43,0 0,99.11 z m 71.67,-10.29 12.43,0 0,-88.82 -12.43,0 0,88.82 z" />
      <path
         inkscape:connector-curvature="0"
         id="path6736"
         style="fill:#c0504d;fill-opacity:1;fill-rule:nonzero;stroke:none"
         d="m 157.49,411.17 12.62,0 0,-188.06 -12.62,0 0,188.06 z m 71.66,-8.35 12.63,0 0,-179.71 -12.63,0 0,179.71 z m 71.86,-17.87 12.43,0 0,-161.84 -12.43,0 0,161.84 z m 71.67,-8.93 12.43,0 0,-152.91 -12.43,0 0,152.91 z m 71.66,-13.79 12.43,0 0,-139.12 -12.43,0 0,139.12 z m 71.67,-17.67 12.43,0 0,-121.45 -12.43,0 0,121.45 z m 71.66,-9.52 12.43,0 0,-111.93 -12.43,0 0,111.93 z m 71.67,-9.9 12.43,0 0,-102.03 -12.43,0 0,102.03 z m 71.66,-11.27 12.43,0 0,-90.76 -12.43,0 0,90.76 z" />
      <path
         inkscape:connector-curvature="0"
         id="path6738"
         style="fill:none;stroke:#000000;stroke-width:1.21379995;stroke-linecap:butt;stroke-linejoin:round;stroke-miterlimit:10;stroke-dasharray:none;stroke-opacity:1"
         d="m 157.49,411.17 12.62,0 0,-188.06 -12.62,0 0,188.06 z m 71.66,-8.35 12.63,0 0,-179.71 -12.63,0 0,179.71 z m 71.86,-17.87 12.43,0 0,-161.84 -12.43,0 0,161.84 z m 71.67,-8.93 12.43,0 0,-152.91 -12.43,0 0,152.91 z m 71.66,-13.79 12.43,0 0,-139.12 -12.43,0 0,139.12 z m 71.67,-17.67 12.43,0 0,-121.45 -12.43,0 0,121.45 z m 71.66,-9.52 12.43,0 0,-111.93 -12.43,0 0,111.93 z m 71.67,-9.9 12.43,0 0,-102.03 -12.43,0 0,102.03 z m 71.66,-11.27 12.43,0 0,-90.76 -12.43,0 0,90.76 z" />
      <path
         inkscape:connector-curvature="0"
         id="path6740"
         style="fill:#9bbb59;fill-opacity:1;fill-rule:nonzero;stroke:none"
         d="m 173.41,412.34 12.63,0 0,-189.23 -12.63,0 0,189.23 z m 71.67,-11.66 12.62,0 0,-177.57 -12.62,0 0,177.57 z m 71.66,-14.37 12.63,0 0,-163.2 -12.63,0 0,163.2 z m 71.67,-12.23 12.62,0 0,-150.97 -12.62,0 0,150.97 z m 71.66,-13.01 12.63,0 0,-137.96 -12.63,0 0,137.96 z m 71.67,-14.38 12.62,0 0,-123.58 -12.62,0 0,123.58 z m 71.66,-13.4 12.63,0 0,-110.18 -12.63,0 0,110.18 z m 71.67,-11.26 12.62,0 0,-98.92 -12.62,0 0,98.92 z m 71.66,-9.91 12.63,0 0,-89.01 -12.63,0 0,89.01 z" />
      <path
         inkscape:connector-curvature="0"
         id="path6742"
         style="fill:none;stroke:#000000;stroke-width:1.21379995;stroke-linecap:butt;stroke-linejoin:round;stroke-miterlimit:10;stroke-dasharray:none;stroke-opacity:1"
         d="m 173.41,412.34 12.63,0 0,-189.23 -12.63,0 0,189.23 z m 71.67,-11.66 12.62,0 0,-177.57 -12.62,0 0,177.57 z m 71.66,-14.37 12.63,0 0,-163.2 -12.63,0 0,163.2 z m 71.67,-12.23 12.62,0 0,-150.97 -12.62,0 0,150.97 z m 71.66,-13.01 12.63,0 0,-137.96 -12.63,0 0,137.96 z m 71.67,-14.38 12.62,0 0,-123.58 -12.62,0 0,123.58 z m 71.66,-13.4 12.63,0 0,-110.18 -12.63,0 0,110.18 z m 71.67,-11.26 12.62,0 0,-98.92 -12.62,0 0,98.92 z m 71.66,-9.91 12.63,0 0,-89.01 -12.63,0 0,89.01 z" />
      <path
         inkscape:connector-curvature="0"
         id="path6744"
         style="fill:none;stroke:#d9d9d9;stroke-width:1.21379995;stroke-linecap:butt;stroke-linejoin:round;stroke-miterlimit:10;stroke-dasharray:none;stroke-opacity:1"
         d="m 128,223.11 645.02,0" />
      <path
         inkscape:connector-curvature="0"
         id="path6746"
         style="fill:none;stroke:#d9d9d9;stroke-width:1.21379995;stroke-linecap:butt;stroke-linejoin:round;stroke-miterlimit:10;stroke-dasharray:none;stroke-opacity:1"
         d="m 128,223.11 0,-4.63 m 71.63,4.63 0,-4.63 m 71.67,4.63 0,-4.63 m 71.66,4.63 0,-4.63 m 71.67,4.63 0,-4.63 m 71.66,4.63 0,-4.63 m 71.67,4.63 0,-4.63 m 71.66,4.63 0,-4.63 m 71.67,4.63 0,-4.63 m 71.73,4.63 0,-4.63" />
      <g
         id="g6748">
        <path
           inkscape:connector-curvature="0"
           id="path6750"
           style="fill:none;stroke:#4f81bd;stroke-width:2.42770004;stroke-linecap:round;stroke-linejoin:round;stroke-miterlimit:10;stroke-dasharray:0, 4.8553;stroke-dashoffset:0;stroke-opacity:1"
           d="M 163.83,413.16 737.18,310.07" />
      </g>
      <g
         id="g6752">
        <path
           inkscape:connector-curvature="0"
           id="path6754"
           style="fill:none;stroke:#c0504d;stroke-width:2.42770004;stroke-linecap:round;stroke-linejoin:round;stroke-miterlimit:10;stroke-dasharray:0, 4.8553;stroke-dashoffset:0;stroke-opacity:1"
           d="M 163.83,412.04 737.18,311.46" />
      </g>
      <g
         id="g6756">
        <path
           inkscape:connector-curvature="0"
           id="path6758"
           style="fill:none;stroke:#9bbb59;stroke-width:2.42770004;stroke-linecap:round;stroke-linejoin:round;stroke-miterlimit:10;stroke-dasharray:0, 4.8553;stroke-dashoffset:0;stroke-opacity:1"
           d="M 163.83,412.38 737.18,309.52" />
      </g>
      <g
         id="g6760">
        <g
           clip-path="url(#clipPath6764)"
           id="g6762">
          <text
             id="text6768"
             style="font-variant:normal;font-weight:normal;font-size:14.56799984px;font-family:Calibri;-inkscape-font-specification:Calibri;writing-mode:lr-tb;fill:#595959;fill-opacity:1;fill-rule:nonzero;stroke:none"
             transform="matrix(1,0,0,-1,107.11,218.93)">
            <tspan
               id="tspan6770"
               y="0"
               x="0">0</tspan>
          </text>
        </g>
      </g>
      <g
         id="g6772">
        <g
           clip-path="url(#clipPath6776)"
           id="g6774">
          <text
             id="text6780"
             style="font-variant:normal;font-weight:normal;font-size:14.56799984px;font-family:Calibri;-inkscape-font-specification:Calibri;writing-mode:lr-tb;fill:#595959;fill-opacity:1;fill-rule:nonzero;stroke:none"
             transform="matrix(1,0,0,-1,96.096,241.22)">
            <tspan
               id="tspan6782"
               sodipodi:role="line"
               y="0"
               x="0 7.3859758 11.07168">0,1</tspan>
          </text>
        </g>
      </g>
      <g
         id="g6784">
        <g
           clip-path="url(#clipPath6788)"
           id="g6786">
          <text
             id="text6792"
             style="font-variant:normal;font-weight:normal;font-size:14.56799984px;font-family:Calibri;-inkscape-font-specification:Calibri;writing-mode:lr-tb;fill:#595959;fill-opacity:1;fill-rule:nonzero;stroke:none"
             transform="matrix(1,0,0,-1,96.096,263.5)">
            <tspan
               id="tspan6794"
               sodipodi:role="line"
               y="0"
               x="0 7.3859758 11.07168">0,2</tspan>
          </text>
        </g>
      </g>
      <g
         id="g6796">
        <g
           clip-path="url(#clipPath6800)"
           id="g6798">
          <text
             id="text6804"
             style="font-variant:normal;font-weight:normal;font-size:14.56799984px;font-family:Calibri;-inkscape-font-specification:Calibri;writing-mode:lr-tb;fill:#595959;fill-opacity:1;fill-rule:nonzero;stroke:none"
             transform="matrix(1,0,0,-1,96.096,285.79)">
            <tspan
               id="tspan6806"
               sodipodi:role="line"
               y="0"
               x="0 7.3859758 11.07168">0,3</tspan>
          </text>
        </g>
      </g>
      <g
         id="g6808">
        <g
           clip-path="url(#clipPath6812)"
           id="g6810">
          <text
             id="text6816"
             style="font-variant:normal;font-weight:normal;font-size:14.56799984px;font-family:Calibri;-inkscape-font-specification:Calibri;writing-mode:lr-tb;fill:#595959;fill-opacity:1;fill-rule:nonzero;stroke:none"
             transform="matrix(1,0,0,-1,96.096,308.09)">
            <tspan
               id="tspan6818"
               sodipodi:role="line"
               y="0"
               x="0 7.3859758 11.07168">0,4</tspan>
          </text>
        </g>
      </g>
      <g
         id="g6820">
        <g
           clip-path="url(#clipPath6824)"
           id="g6822">
          <text
             id="text6828"
             style="font-variant:normal;font-weight:normal;font-size:14.56799984px;font-family:Calibri;-inkscape-font-specification:Calibri;writing-mode:lr-tb;fill:#595959;fill-opacity:1;fill-rule:nonzero;stroke:none"
             transform="matrix(1,0,0,-1,96.096,330.36)">
            <tspan
               id="tspan6830"
               sodipodi:role="line"
               y="0"
               x="0 7.3859758 11.07168">0,5</tspan>
          </text>
        </g>
      </g>
      <g
         id="g6832">
        <g
           clip-path="url(#clipPath6836)"
           id="g6834">
          <text
             id="text6840"
             style="font-variant:normal;font-weight:normal;font-size:14.56799984px;font-family:Calibri;-inkscape-font-specification:Calibri;writing-mode:lr-tb;fill:#595959;fill-opacity:1;fill-rule:nonzero;stroke:none"
             transform="matrix(1,0,0,-1,96.096,352.66)">
            <tspan
               id="tspan6842"
               sodipodi:role="line"
               y="0"
               x="0 7.3859758 11.07168">0,6</tspan>
          </text>
        </g>
      </g>
      <g
         id="g6844">
        <g
           clip-path="url(#clipPath6848)"
           id="g6846">
          <text
             id="text6852"
             style="font-variant:normal;font-weight:normal;font-size:14.56799984px;font-family:Calibri;-inkscape-font-specification:Calibri;writing-mode:lr-tb;fill:#595959;fill-opacity:1;fill-rule:nonzero;stroke:none"
             transform="matrix(1,0,0,-1,96.096,374.93)">
            <tspan
               id="tspan6854"
               sodipodi:role="line"
               y="0"
               x="0 7.3859758 11.07168">0,7</tspan>
          </text>
        </g>
      </g>
      <g
         id="g6856">
        <g
           clip-path="url(#clipPath6860)"
           id="g6858">
          <text
             id="text6864"
             style="font-variant:normal;font-weight:normal;font-size:14.56799984px;font-family:Calibri;-inkscape-font-specification:Calibri;writing-mode:lr-tb;fill:#595959;fill-opacity:1;fill-rule:nonzero;stroke:none"
             transform="matrix(1,0,0,-1,96.096,397.22)">
            <tspan
               id="tspan6866"
               sodipodi:role="line"
               y="0"
               x="0 7.3859758 11.07168">0,8</tspan>
          </text>
        </g>
      </g>
      <g
         id="g6868">
        <g
           clip-path="url(#clipPath6872)"
           id="g6870">
          <text
             id="text6876"
             style="font-variant:normal;font-weight:normal;font-size:14.56799984px;font-family:Calibri;-inkscape-font-specification:Calibri;writing-mode:lr-tb;fill:#595959;fill-opacity:1;fill-rule:nonzero;stroke:none"
             transform="matrix(1,0,0,-1,96.096,419.52)">
            <tspan
               id="tspan6878"
               sodipodi:role="line"
               y="0"
               x="0 7.3859758 11.07168">0,9</tspan>
          </text>
        </g>
      </g>
      <g
         id="g6880">
        <g
           clip-path="url(#clipPath6884)"
           id="g6882">
          <text
             id="text6888"
             style="font-variant:normal;font-weight:normal;font-size:14.56799984px;font-family:Calibri;-inkscape-font-specification:Calibri;writing-mode:lr-tb;fill:#595959;fill-opacity:1;fill-rule:nonzero;stroke:none"
             transform="matrix(1,0,0,-1,107.11,441.79)">
            <tspan
               id="tspan6890"
               y="0"
               x="0">1</tspan>
          </text>
        </g>
      </g>
      <g
         id="g6892">
        <g
           clip-path="url(#clipPath6896)"
           id="g6894">
          <text
             id="text6900"
             style="font-variant:normal;font-weight:normal;font-size:14.56799984px;font-family:Calibri;-inkscape-font-specification:Calibri;writing-mode:lr-tb;fill:#595959;fill-opacity:1;fill-rule:nonzero;stroke:none"
             transform="matrix(1,0,0,-1,160.15,199.99)">
            <tspan
               id="tspan6902"
               y="0"
               x="0">1</tspan>
          </text>
        </g>
      </g>
      <g
         id="g6904">
        <g
           clip-path="url(#clipPath6908)"
           id="g6906">
          <text
             id="text6912"
             style="font-variant:normal;font-weight:normal;font-size:14.56799984px;font-family:Calibri;-inkscape-font-specification:Calibri;writing-mode:lr-tb;fill:#595959;fill-opacity:1;fill-rule:nonzero;stroke:none"
             transform="matrix(1,0,0,-1,231.84,199.99)">
            <tspan
               id="tspan6914"
               y="0"
               x="0">2</tspan>
          </text>
        </g>
      </g>
      <g
         id="g6916">
        <g
           clip-path="url(#clipPath6920)"
           id="g6918">
          <text
             id="text6924"
             style="font-variant:normal;font-weight:normal;font-size:14.56799984px;font-family:Calibri;-inkscape-font-specification:Calibri;writing-mode:lr-tb;fill:#595959;fill-opacity:1;fill-rule:nonzero;stroke:none"
             transform="matrix(1,0,0,-1,303.53,199.99)">
            <tspan
               id="tspan6926"
               y="0"
               x="0">3</tspan>
          </text>
        </g>
      </g>
      <g
         id="g6928">
        <g
           clip-path="url(#clipPath6932)"
           id="g6930">
          <text
             id="text6936"
             style="font-variant:normal;font-weight:normal;font-size:14.56799984px;font-family:Calibri;-inkscape-font-specification:Calibri;writing-mode:lr-tb;fill:#595959;fill-opacity:1;fill-rule:nonzero;stroke:none"
             transform="matrix(1,0,0,-1,375.19,199.99)">
            <tspan
               id="tspan6938"
               y="0"
               x="0">4</tspan>
          </text>
        </g>
      </g>
      <g
         id="g6940">
        <g
           clip-path="url(#clipPath6944)"
           id="g6942">
          <text
             id="text6948"
             style="font-variant:normal;font-weight:normal;font-size:14.56799984px;font-family:Calibri;-inkscape-font-specification:Calibri;writing-mode:lr-tb;fill:#595959;fill-opacity:1;fill-rule:nonzero;stroke:none"
             transform="matrix(1,0,0,-1,446.88,199.99)">
            <tspan
               id="tspan6950"
               y="0"
               x="0">5</tspan>
          </text>
        </g>
      </g>
      <g
         id="g6952">
        <g
           clip-path="url(#clipPath6956)"
           id="g6954">
          <text
             id="text6960"
             style="font-variant:normal;font-weight:normal;font-size:14.56799984px;font-family:Calibri;-inkscape-font-specification:Calibri;writing-mode:lr-tb;fill:#595959;fill-opacity:1;fill-rule:nonzero;stroke:none"
             transform="matrix(1,0,0,-1,518.57,199.99)">
            <tspan
               id="tspan6962"
               y="0"
               x="0">6</tspan>
          </text>
        </g>
      </g>
      <g
         id="g6964">
        <g
           clip-path="url(#clipPath6968)"
           id="g6966">
          <text
             id="text6972"
             style="font-variant:normal;font-weight:normal;font-size:14.56799984px;font-family:Calibri;-inkscape-font-specification:Calibri;writing-mode:lr-tb;fill:#595959;fill-opacity:1;fill-rule:nonzero;stroke:none"
             transform="matrix(1,0,0,-1,590.23,199.99)">
            <tspan
               id="tspan6974"
               y="0"
               x="0">7</tspan>
          </text>
        </g>
      </g>
      <g
         id="g6976">
        <g
           clip-path="url(#clipPath6980)"
           id="g6978">
          <text
             id="text6984"
             style="font-variant:normal;font-weight:normal;font-size:14.56799984px;font-family:Calibri;-inkscape-font-specification:Calibri;writing-mode:lr-tb;fill:#595959;fill-opacity:1;fill-rule:nonzero;stroke:none"
             transform="matrix(1,0,0,-1,661.92,199.99)">
            <tspan
               id="tspan6986"
               y="0"
               x="0">8</tspan>
          </text>
        </g>
      </g>
      <g
         id="g6988">
        <g
           clip-path="url(#clipPath6992)"
           id="g6990">
          <text
             id="text6996"
             style="font-variant:normal;font-weight:normal;font-size:14.56799984px;font-family:Calibri;-inkscape-font-specification:Calibri;writing-mode:lr-tb;fill:#595959;fill-opacity:1;fill-rule:nonzero;stroke:none"
             transform="matrix(1,0,0,-1,733.61,199.99)">
            <tspan
               id="tspan6998"
               y="0"
               x="0">9</tspan>
          </text>
        </g>
      </g>
      <g
         id="g7000">
        <g
           clip-path="url(#clipPath7004)"
           id="g7002">
          <text
             id="text7008"
             style="font-variant:normal;font-weight:normal;font-size:16.12800026px;font-family:Calibri;-inkscape-font-specification:Calibri;writing-mode:lr-tb;fill:#595959;fill-opacity:1;fill-rule:nonzero;stroke:none"
             transform="matrix(-4.4e-8,1,1,4.4e-8,86.832,283.94)">
            <tspan
               id="tspan7010"
               sodipodi:role="line"
               y="0"
               x="0 13.78944 21.7728 29.530369 38.06208 41.739265 51.077377 57.899521 64.721664 73.237251 78.865921 86.639618 93.461761">Mean Accuracy</tspan>
          </text>
        </g>
      </g>
      <g
         id="g7012">
        <g
           clip-path="url(#clipPath7016)"
           id="g7014">
          <text
             id="text7020"
             style="font-variant:normal;font-weight:normal;font-size:16.12800026px;font-family:Calibri;-inkscape-font-specification:Calibri;writing-mode:lr-tb;fill:#595959;fill-opacity:1;fill-rule:nonzero;stroke:none"
             transform="matrix(1,0,0,-1,328.15,175.8)">
            <tspan
               id="tspan7022"
               sodipodi:role="line"
               y="0"
               x="0 10.467072 18.998783 31.820543 40.352257 48.319489 53.948158 57.641472 66.14093 71.059967 74.704895 78.414337 86.946045 93.768188 102.26765 115.10554 118.81498 127.33056 134.92685 138.78143 142.49088 146.20032 154.69978 162.07027 168.27956 171.95674 176.84352 180.50458">Number of incoming links (in</tspan>
          </text>
        </g>
      </g>
      <g
         id="g7024">
        <g
           clip-path="url(#clipPath7028)"
           id="g7026">
          <text
             id="text7032"
             style="font-variant:normal;font-weight:normal;font-size:16.12800026px;font-family:Calibri;-inkscape-font-specification:Calibri;writing-mode:lr-tb;fill:#595959;fill-opacity:1;fill-rule:nonzero;stroke:none"
             transform="matrix(1,0,0,-1,517.34,175.8)">
            <tspan
               id="tspan7034"
               y="0"
               x="0">-</tspan>
          </text>
        </g>
      </g>
      <g
         id="g7036">
        <g
           clip-path="url(#clipPath7040)"
           id="g7038">
          <text
             id="text7044"
             style="font-variant:normal;font-weight:normal;font-size:16.12800026px;font-family:Calibri;-inkscape-font-specification:Calibri;writing-mode:lr-tb;fill:#595959;fill-opacity:1;fill-rule:nonzero;stroke:none"
             transform="matrix(1,0,0,-1,522.22,175.8)">
            <tspan
               id="tspan7046"
               sodipodi:role="line"
               y="0"
               x="0 8.5317116 16.482817 24.079103 29.659391 37.610497 45.5616">degree)</tspan>
          </text>
        </g>
      </g>
      <g
         id="g7048">
        <g
           clip-path="url(#clipPath7052)"
           id="g7050">
          <text
             id="text7056"
             style="font-variant:normal;font-weight:normal;font-size:22.72800064px;font-family:Calibri;-inkscape-font-specification:Calibri;writing-mode:lr-tb;fill:#595959;fill-opacity:1;fill-rule:nonzero;stroke:none"
             transform="matrix(1,0,0,-1,350.54,472.22)">
            <tspan
               id="tspan7058"
               sodipodi:role="line"
               y="0"
               x="0 19.43244 30.6828 41.569511 53.410801 58.456417 71.615929 81.229874 90.707451 102.57146 110.16261 121.04933 130.57236">Mean Accuracy</tspan>
          </text>
        </g>
      </g>
      <path
         inkscape:connector-curvature="0"
         id="path7060"
         style="fill:#4f81bd;fill-opacity:1;fill-rule:evenodd;stroke:none"
         d="m 213.72,133.59 40.785,0 0,8.0005 -40.785,0 0,-8.0005 z" />
      <path
         inkscape:connector-curvature="0"
         id="path7062"
         style="fill:none;stroke:#000000;stroke-width:1.21379995;stroke-linecap:butt;stroke-linejoin:round;stroke-miterlimit:10;stroke-dasharray:none;stroke-opacity:1"
         d="m 213.72,133.59 40.785,0 0,8.0005 -40.785,0 0,-8.0005 z" />
      <g
         id="g7064">
        <g
           clip-path="url(#clipPath7068)"
           id="g7066">
          <text
             id="text7072"
             style="font-variant:normal;font-weight:normal;font-size:14.56799984px;font-family:Calibri;-inkscape-font-specification:Calibri;writing-mode:lr-tb;fill:#595959;fill-opacity:1;fill-rule:nonzero;stroke:none"
             transform="matrix(1,0,0,-1,259.03,133.39)">
            <tspan
               id="tspan7074"
               sodipodi:role="line"
               y="0"
               x="0 7.9249921 15.179856 20.788536 25.814495 30.272305 34.555298 38.051617">Best-fit</tspan>
          </text>
        </g>
      </g>
      <path
         inkscape:connector-curvature="0"
         id="path7076"
         style="fill:#c0504d;fill-opacity:1;fill-rule:evenodd;stroke:none"
         d="m 356.14,133.59 40.785,0 0,8.0005 -40.785,0 0,-8.0005 z" />
      <path
         inkscape:connector-curvature="0"
         id="path7078"
         style="fill:none;stroke:#000000;stroke-width:1.21379995;stroke-linecap:butt;stroke-linejoin:round;stroke-miterlimit:10;stroke-dasharray:none;stroke-opacity:1"
         d="m 356.14,133.59 40.785,0 0,8.0005 -40.785,0 0,-8.0005 z" />
      <g
         id="g7080">
        <g
           clip-path="url(#clipPath7084)"
           id="g7082">
          <text
             id="text7088"
             style="font-variant:normal;font-weight:normal;font-size:14.56799984px;font-family:Calibri;-inkscape-font-specification:Calibri;writing-mode:lr-tb;fill:#595959;fill-opacity:1;fill-rule:nonzero;stroke:none"
             transform="matrix(1,0,0,-1,401.47,133.39)">
            <tspan
               id="tspan7090"
               sodipodi:role="line"
               y="0"
               x="0 6.5993042 14.364048 17.656416 20.948784 25.406591 29.849833 33.200474">Full-fit</tspan>
          </text>
        </g>
      </g>
      <path
         inkscape:connector-curvature="0"
         id="path7092"
         style="fill:#9bbb59;fill-opacity:1;fill-rule:evenodd;stroke:none"
         d="m 498.56,133.59 40.785,0 0,8.0005 -40.785,0 0,-8.0005 z" />
      <path
         inkscape:connector-curvature="0"
         id="path7094"
         style="fill:none;stroke:#000000;stroke-width:1.21379995;stroke-linecap:butt;stroke-linejoin:round;stroke-miterlimit:10;stroke-dasharray:none;stroke-opacity:1"
         d="m 498.56,133.59 40.785,0 0,8.0005 -40.785,0 0,-8.0005 z" />
      <g
         id="g7096">
        <g
           clip-path="url(#clipPath7100)"
           id="g7098">
          <text
             id="text7104"
             style="font-variant:normal;font-weight:normal;font-size:14.56799984px;font-family:Calibri;-inkscape-font-specification:Calibri;writing-mode:lr-tb;fill:#595959;fill-opacity:1;fill-rule:nonzero;stroke:none"
             transform="matrix(1,0,0,-1,543.91,133.39)">
            <tspan
               id="tspan7106"
               sodipodi:role="line"
               y="0"
               x="0 7.9541278 15.136152 21.720888 28.91748 35.895554">Reveal</tspan>
          </text>
        </g>
      </g>
      <g
         id="g7108">
        <path
           inkscape:connector-curvature="0"
           id="path7110"
           style="fill:none;stroke:#4f81bd;stroke-width:2.42770004;stroke-linecap:round;stroke-linejoin:round;stroke-miterlimit:10;stroke-dasharray:0, 4.8553;stroke-dashoffset:0;stroke-opacity:1"
           d="m 213.72,110.27 40.79,0" />
      </g>
      <g
         id="g7112">
        <g
           clip-path="url(#clipPath7116)"
           id="g7114">
          <text
             id="text7120"
             style="font-variant:normal;font-weight:normal;font-size:14.56799984px;font-family:Calibri;-inkscape-font-specification:Calibri;writing-mode:lr-tb;fill:#595959;fill-opacity:1;fill-rule:nonzero;stroke:none"
             transform="matrix(1,0,0,-1,259.03,106.08)">
            <tspan
               id="tspan7122"
               sodipodi:role="line"
               y="0"
               x="0 6.2059679 9.5566082 17.102833 24.474239 31.262928 36.507408 39.799774 44.097336 52.022327 59.277191 65.060684 69.940971 74.398773 78.842018 82.148949 87.029228">Linear (Best-fit)</tspan>
          </text>
        </g>
      </g>
      <g
         id="g7124">
        <path
           inkscape:connector-curvature="0"
           id="path7126"
           style="fill:none;stroke:#c0504d;stroke-width:2.42770004;stroke-linecap:round;stroke-linejoin:round;stroke-miterlimit:10;stroke-dasharray:0, 4.8553;stroke-dashoffset:0;stroke-opacity:1"
           d="m 356.14,110.27 40.78,0" />
      </g>
      <g
         id="g7128">
        <g
           clip-path="url(#clipPath7132)"
           id="g7130">
          <text
             id="text7136"
             style="font-variant:normal;font-weight:normal;font-size:14.56799984px;font-family:Calibri;-inkscape-font-specification:Calibri;writing-mode:lr-tb;fill:#595959;fill-opacity:1;fill-rule:nonzero;stroke:none"
             transform="matrix(1,0,0,-1,401.47,106.08)">
            <tspan
               id="tspan7138"
               sodipodi:role="line"
               y="0"
               x="0 6.2059679 9.4983358 17.088264 24.445105 31.233791 36.449135 39.741505 44.00993 50.784046 58.373978 61.666344 65.162666 69.620476 73.903465 77.39978 82.280067">Linear (Full-fit)</tspan>
          </text>
        </g>
      </g>
      <g
         id="g7140">
        <path
           inkscape:connector-curvature="0"
           id="path7142"
           style="fill:none;stroke:#9bbb59;stroke-width:2.42770004;stroke-linecap:round;stroke-linejoin:round;stroke-miterlimit:10;stroke-dasharray:0, 4.8553;stroke-dashoffset:0;stroke-opacity:1"
           d="m 498.56,110.27 40.78,0" />
      </g>
      <g
         id="g7144">
        <g
           clip-path="url(#clipPath7148)"
           id="g7146">
          <text
             id="text7152"
             style="font-variant:normal;font-weight:normal;font-size:14.56799984px;font-family:Calibri;-inkscape-font-specification:Calibri;writing-mode:lr-tb;fill:#595959;fill-opacity:1;fill-rule:nonzero;stroke:none"
             transform="matrix(1,0,0,-1,543.91,106.08)">
            <tspan
               id="tspan7154"
               sodipodi:role="line"
               y="0"
               x="0 6.2059679 9.4983358 17.059128 24.415968 31.204657 36.419998 39.712368 43.980793 51.934921 59.116943 65.701683 73.07309 79.861778 83.358093">Linear (Reveal)</tspan>
          </text>
        </g>
      </g>
      <path
         inkscape:connector-curvature="0"
         id="path7156"
         style="fill:none;stroke:#d9d9d9;stroke-width:1.21379995;stroke-linecap:butt;stroke-linejoin:round;stroke-miterlimit:10;stroke-dasharray:none;stroke-opacity:1"
         d="m 51.253,89.336 739.57,0 0,416.61 -739.57,0 0,-416.61 z" />
    </g>
  </g>
</svg>
