<?xml version="1.0" encoding="UTF-8" standalone="no"?>
<!-- Created with Inkscape (http://www.inkscape.org/) -->

<svg
   xmlns:dc="http://purl.org/dc/elements/1.1/"
   xmlns:cc="http://creativecommons.org/ns#"
   xmlns:rdf="http://www.w3.org/1999/02/22-rdf-syntax-ns#"
   xmlns:svg="http://www.w3.org/2000/svg"
   xmlns="http://www.w3.org/2000/svg"
   xmlns:sodipodi="http://sodipodi.sourceforge.net/DTD/sodipodi-0.dtd"
   xmlns:inkscape="http://www.inkscape.org/namespaces/inkscape"
   id="svg2"
   version="1.1"
   inkscape:version="0.91 r13725"
   xml:space="preserve"
   width="925.89264"
   height="501.41763"
   viewBox="0 0 925.89262 501.41763"
   sodipodi:docname="Clusterdepth_BACC.svg"><metadata
     id="metadata8"><rdf:RDF><cc:Work
         rdf:about=""><dc:format>image/svg+xml</dc:format><dc:type
           rdf:resource="http://purl.org/dc/dcmitype/StillImage" /><dc:title /></cc:Work></rdf:RDF></metadata><defs
     id="defs6"><clipPath
       clipPathUnits="userSpaceOnUse"
       id="clipPath150"><path
         d="m 51.36,97.92 739.32,0 0,399.72 -739.32,0 0,-399.72 z"
         id="path152"
         inkscape:connector-curvature="0"
         style="clip-rule:evenodd" /></clipPath><clipPath
       clipPathUnits="userSpaceOnUse"
       id="clipPath162"><path
         d="m 51.36,97.92 739.32,0 0,399.72 -739.32,0 0,-399.72 z"
         id="path164"
         inkscape:connector-curvature="0"
         style="clip-rule:evenodd" /></clipPath><clipPath
       clipPathUnits="userSpaceOnUse"
       id="clipPath174"><path
         d="m 51.36,97.92 739.32,0 0,399.72 -739.32,0 0,-399.72 z"
         id="path176"
         inkscape:connector-curvature="0"
         style="clip-rule:evenodd" /></clipPath><clipPath
       clipPathUnits="userSpaceOnUse"
       id="clipPath186"><path
         d="m 51.36,97.92 739.32,0 0,399.72 -739.32,0 0,-399.72 z"
         id="path188"
         inkscape:connector-curvature="0"
         style="clip-rule:evenodd" /></clipPath><clipPath
       clipPathUnits="userSpaceOnUse"
       id="clipPath198"><path
         d="m 51.36,97.92 739.32,0 0,399.72 -739.32,0 0,-399.72 z"
         id="path200"
         inkscape:connector-curvature="0"
         style="clip-rule:evenodd" /></clipPath><clipPath
       clipPathUnits="userSpaceOnUse"
       id="clipPath210"><path
         d="m 51.36,97.92 739.32,0 0,399.72 -739.32,0 0,-399.72 z"
         id="path212"
         inkscape:connector-curvature="0"
         style="clip-rule:evenodd" /></clipPath><clipPath
       clipPathUnits="userSpaceOnUse"
       id="clipPath222"><path
         d="m 51.36,97.92 739.32,0 0,399.72 -739.32,0 0,-399.72 z"
         id="path224"
         inkscape:connector-curvature="0"
         style="clip-rule:evenodd" /></clipPath><clipPath
       clipPathUnits="userSpaceOnUse"
       id="clipPath234"><path
         d="m 51.36,97.92 739.32,0 0,399.72 -739.32,0 0,-399.72 z"
         id="path236"
         inkscape:connector-curvature="0"
         style="clip-rule:evenodd" /></clipPath><clipPath
       clipPathUnits="userSpaceOnUse"
       id="clipPath246"><path
         d="m 51.36,97.92 739.32,0 0,399.72 -739.32,0 0,-399.72 z"
         id="path248"
         inkscape:connector-curvature="0"
         style="clip-rule:evenodd" /></clipPath><clipPath
       clipPathUnits="userSpaceOnUse"
       id="clipPath258"><path
         d="m 51.36,97.92 739.32,0 0,399.72 -739.32,0 0,-399.72 z"
         id="path260"
         inkscape:connector-curvature="0"
         style="clip-rule:evenodd" /></clipPath><clipPath
       clipPathUnits="userSpaceOnUse"
       id="clipPath270"><path
         d="m 51.36,97.92 739.32,0 0,399.72 -739.32,0 0,-399.72 z"
         id="path272"
         inkscape:connector-curvature="0"
         style="clip-rule:evenodd" /></clipPath><clipPath
       clipPathUnits="userSpaceOnUse"
       id="clipPath282"><path
         d="m 51.36,97.92 739.32,0 0,399.72 -739.32,0 0,-399.72 z"
         id="path284"
         inkscape:connector-curvature="0"
         style="clip-rule:evenodd" /></clipPath><clipPath
       clipPathUnits="userSpaceOnUse"
       id="clipPath294"><path
         d="m 51.36,97.92 739.32,0 0,399.72 -739.32,0 0,-399.72 z"
         id="path296"
         inkscape:connector-curvature="0"
         style="clip-rule:evenodd" /></clipPath><clipPath
       clipPathUnits="userSpaceOnUse"
       id="clipPath306"><path
         d="m 51.36,97.92 739.32,0 0,399.72 -739.32,0 0,-399.72 z"
         id="path308"
         inkscape:connector-curvature="0"
         style="clip-rule:evenodd" /></clipPath><clipPath
       clipPathUnits="userSpaceOnUse"
       id="clipPath318"><path
         d="m 51.36,97.92 739.32,0 0,399.72 -739.32,0 0,-399.72 z"
         id="path320"
         inkscape:connector-curvature="0"
         style="clip-rule:evenodd" /></clipPath><clipPath
       clipPathUnits="userSpaceOnUse"
       id="clipPath330"><path
         d="m 51.36,97.92 739.32,0 0,399.72 -739.32,0 0,-399.72 z"
         id="path332"
         inkscape:connector-curvature="0"
         style="clip-rule:evenodd" /></clipPath><clipPath
       clipPathUnits="userSpaceOnUse"
       id="clipPath342"><path
         d="m 51.36,97.92 739.32,0 0,399.72 -739.32,0 0,-399.72 z"
         id="path344"
         inkscape:connector-curvature="0"
         style="clip-rule:evenodd" /></clipPath><clipPath
       clipPathUnits="userSpaceOnUse"
       id="clipPath354"><path
         d="m 51.36,97.92 739.32,0 0,399.72 -739.32,0 0,-399.72 z"
         id="path356"
         inkscape:connector-curvature="0"
         style="clip-rule:evenodd" /></clipPath><clipPath
       clipPathUnits="userSpaceOnUse"
       id="clipPath366"><path
         d="m 51.36,97.92 739.32,0 0,399.72 -739.32,0 0,-399.72 z"
         id="path368"
         inkscape:connector-curvature="0"
         style="clip-rule:evenodd" /></clipPath><clipPath
       clipPathUnits="userSpaceOnUse"
       id="clipPath378"><path
         d="m 51.36,97.92 739.32,0 0,399.72 -739.32,0 0,-399.72 z"
         id="path380"
         inkscape:connector-curvature="0"
         style="clip-rule:evenodd" /></clipPath><clipPath
       clipPathUnits="userSpaceOnUse"
       id="clipPath390"><path
         d="m 51.36,97.92 739.32,0 0,399.72 -739.32,0 0,-399.72 z"
         id="path392"
         inkscape:connector-curvature="0"
         style="clip-rule:evenodd" /></clipPath><clipPath
       clipPathUnits="userSpaceOnUse"
       id="clipPath402"><path
         d="m 51.36,97.92 739.32,0 0,399.72 -739.32,0 0,-399.72 z"
         id="path404"
         inkscape:connector-curvature="0"
         style="clip-rule:evenodd" /></clipPath><clipPath
       clipPathUnits="userSpaceOnUse"
       id="clipPath420"><path
         d="m 51.36,97.92 739.32,0 0,399.72 -739.32,0 0,-399.72 z"
         id="path422"
         inkscape:connector-curvature="0"
         style="clip-rule:evenodd" /></clipPath><clipPath
       clipPathUnits="userSpaceOnUse"
       id="clipPath438"><path
         d="m 51.36,97.92 739.32,0 0,399.72 -739.32,0 0,-399.72 z"
         id="path440"
         inkscape:connector-curvature="0"
         style="clip-rule:evenodd" /></clipPath><clipPath
       clipPathUnits="userSpaceOnUse"
       id="clipPath456"><path
         d="m 51.36,97.92 739.32,0 0,399.72 -739.32,0 0,-399.72 z"
         id="path458"
         inkscape:connector-curvature="0"
         style="clip-rule:evenodd" /></clipPath></defs><sodipodi:namedview
     pagecolor="#ffffff"
     bordercolor="#666666"
     borderopacity="1"
     objecttolerance="10"
     gridtolerance="10"
     guidetolerance="10"
     inkscape:pageopacity="0"
     inkscape:pageshadow="2"
     inkscape:window-width="1301"
     inkscape:window-height="744"
     id="namedview4"
     showgrid="false"
     fit-margin-top="0"
     fit-margin-left="0"
     fit-margin-right="0"
     fit-margin-bottom="0"
     inkscape:zoom="0.64"
     inkscape:cx="443.47238"
     inkscape:cy="184.65807"
     inkscape:window-x="65"
     inkscape:window-y="24"
     inkscape:window-maximized="1"
     inkscape:current-layer="g10" /><g
     id="g10"
     inkscape:groupmode="layer"
     inkscape:label="Clusterdepth_BACC"
     transform="matrix(1.25,0,0,-1.25,-63.304937,622.86881)"><path
       d="m 51.361,97.878 739.28,0 0,399.7 -739.28,0 0,-399.7 z"
       style="fill:#ffffff;fill-opacity:1;fill-rule:evenodd;stroke:none"
       id="path12"
       inkscape:connector-curvature="0" /><path
       d="m 101.48,210.11 668.13,0 m -668.13,24.09 668.13,0 m -668.13,24.09 668.13,0 m -668.13,23.86 668.13,0 m -668.13,24.1 668.13,0 m -668.13,24.09 668.13,0 m -668.13,24.09 668.13,0 m -668.13,24.09 668.13,0 m -668.13,24.09 668.13,0 m -668.13,24.05 668.13,0"
       style="fill:none;stroke:#d9d9d9;stroke-width:1.43410003;stroke-linecap:butt;stroke-linejoin:round;stroke-miterlimit:10;stroke-dasharray:none;stroke-opacity:1"
       id="path14"
       inkscape:connector-curvature="0" /><path
       d="m 101.48,185.97 668.13,0"
       style="fill:none;stroke:#d9d9d9;stroke-width:1.43410003;stroke-linecap:butt;stroke-linejoin:round;stroke-miterlimit:10;stroke-dasharray:none;stroke-opacity:1"
       id="path16"
       inkscape:connector-curvature="0" /><path
       d="m 101.48,185.97 0,-5.46 m 66.9,5.46 0,-5.46 m 66.77,5.46 0,-5.46 m 66.77,5.46 0,-5.46 m 66.77,5.46 0,-5.46 m 66.77,5.46 0,-5.46 m 67,5.46 0,-5.46 m 66.77,5.46 0,-5.46 m 66.77,5.46 0,-5.46 m 66.77,5.46 0,-5.46 m 66.84,5.46 0,-5.46"
       style="fill:none;stroke:#d9d9d9;stroke-width:1.43410003;stroke-linecap:butt;stroke-linejoin:round;stroke-miterlimit:10;stroke-dasharray:none;stroke-opacity:1"
       id="path18"
       inkscape:connector-curvature="0" /><path
       d="m 134.89,314.96 66.76,-12.39 66.77,25.01 67,-12.62 66.77,-18.65 66.77,7.87 66.77,4.59 66.77,6.19 67,-12.39 66.71,6.2"
       style="fill:none;stroke:#ed7d31;stroke-width:4.30219984;stroke-linecap:round;stroke-linejoin:round;stroke-miterlimit:10;stroke-dasharray:none;stroke-opacity:1"
       id="path20"
       inkscape:connector-curvature="0" /><path
       d="m 139.7,314.94 c 0,-2.67 -2.16,-4.82 -4.82,-4.82 -2.66,0 -4.82,2.15 -4.82,4.82 0,2.66 2.16,4.81 4.82,4.81 2.66,0 4.82,-2.15 4.82,-4.81 z"
       style="fill:#ed7d31;fill-opacity:1;fill-rule:nonzero;stroke:none"
       id="path22"
       inkscape:connector-curvature="0" /><path
       d="m 139.7,314.94 c 0,-2.67 -2.16,-4.82 -4.82,-4.82 -2.66,0 -4.82,2.15 -4.82,4.82 0,2.66 2.16,4.81 4.82,4.81 2.66,0 4.82,-2.15 4.82,-4.81 z"
       style="fill:none;stroke:#ed7d31;stroke-width:1.37670004;stroke-linecap:butt;stroke-linejoin:round;stroke-miterlimit:10;stroke-dasharray:none;stroke-opacity:1"
       id="path24"
       inkscape:connector-curvature="0" /><path
       d="m 206.47,302.55 c 0,-2.67 -2.16,-4.82 -4.82,-4.82 -2.66,0 -4.82,2.15 -4.82,4.82 0,2.66 2.16,4.81 4.82,4.81 2.66,0 4.82,-2.15 4.82,-4.81 z"
       style="fill:#ed7d31;fill-opacity:1;fill-rule:nonzero;stroke:none"
       id="path26"
       inkscape:connector-curvature="0" /><path
       d="m 206.47,302.55 c 0,-2.67 -2.16,-4.82 -4.82,-4.82 -2.66,0 -4.82,2.15 -4.82,4.82 0,2.66 2.16,4.81 4.82,4.81 2.66,0 4.82,-2.15 4.82,-4.81 z"
       style="fill:none;stroke:#ed7d31;stroke-width:1.37670004;stroke-linecap:butt;stroke-linejoin:round;stroke-miterlimit:10;stroke-dasharray:none;stroke-opacity:1"
       id="path28"
       inkscape:connector-curvature="0" /><path
       d="m 273.24,327.56 c 0,-2.67 -2.16,-4.82 -4.82,-4.82 -2.66,0 -4.82,2.15 -4.82,4.82 0,2.66 2.16,4.81 4.82,4.81 2.66,0 4.82,-2.15 4.82,-4.81 z"
       style="fill:#ed7d31;fill-opacity:1;fill-rule:nonzero;stroke:none"
       id="path30"
       inkscape:connector-curvature="0" /><path
       d="m 273.24,327.56 c 0,-2.67 -2.16,-4.82 -4.82,-4.82 -2.66,0 -4.82,2.15 -4.82,4.82 0,2.66 2.16,4.81 4.82,4.81 2.66,0 4.82,-2.15 4.82,-4.81 z"
       style="fill:none;stroke:#ed7d31;stroke-width:1.37670004;stroke-linecap:butt;stroke-linejoin:round;stroke-miterlimit:10;stroke-dasharray:none;stroke-opacity:1"
       id="path32"
       inkscape:connector-curvature="0" /><path
       d="m 340.24,314.94 c 0,-2.67 -2.16,-4.82 -4.82,-4.82 -2.66,0 -4.82,2.15 -4.82,4.82 0,2.66 2.16,4.81 4.82,4.81 2.66,0 4.82,-2.15 4.82,-4.81 z"
       style="fill:#ed7d31;fill-opacity:1;fill-rule:nonzero;stroke:none"
       id="path34"
       inkscape:connector-curvature="0" /><path
       d="m 340.24,314.94 c 0,-2.67 -2.16,-4.82 -4.82,-4.82 -2.66,0 -4.82,2.15 -4.82,4.82 0,2.66 2.16,4.81 4.82,4.81 2.66,0 4.82,-2.15 4.82,-4.81 z"
       style="fill:none;stroke:#ed7d31;stroke-width:1.37670004;stroke-linecap:butt;stroke-linejoin:round;stroke-miterlimit:10;stroke-dasharray:none;stroke-opacity:1"
       id="path36"
       inkscape:connector-curvature="0" /><path
       d="m 407.01,296.35 c 0,-2.66 -2.16,-4.82 -4.82,-4.82 -2.66,0 -4.82,2.16 -4.82,4.82 0,2.66 2.16,4.82 4.82,4.82 2.66,0 4.82,-2.16 4.82,-4.82 z"
       style="fill:#ed7d31;fill-opacity:1;fill-rule:nonzero;stroke:none"
       id="path38"
       inkscape:connector-curvature="0" /><path
       d="m 407.01,296.35 c 0,-2.66 -2.16,-4.82 -4.82,-4.82 -2.66,0 -4.82,2.16 -4.82,4.82 0,2.66 2.16,4.82 4.82,4.82 2.66,0 4.82,-2.16 4.82,-4.82 z"
       style="fill:none;stroke:#ed7d31;stroke-width:1.37670004;stroke-linecap:butt;stroke-linejoin:round;stroke-miterlimit:10;stroke-dasharray:none;stroke-opacity:1"
       id="path40"
       inkscape:connector-curvature="0" /><path
       d="m 473.78,304.15 c 0,-2.66 -2.16,-4.82 -4.82,-4.82 -2.66,0 -4.82,2.16 -4.82,4.82 0,2.66 2.16,4.82 4.82,4.82 2.66,0 4.82,-2.16 4.82,-4.82 z"
       style="fill:#ed7d31;fill-opacity:1;fill-rule:nonzero;stroke:none"
       id="path42"
       inkscape:connector-curvature="0" /><path
       d="m 473.78,304.15 c 0,-2.66 -2.16,-4.82 -4.82,-4.82 -2.66,0 -4.82,2.16 -4.82,4.82 0,2.66 2.16,4.82 4.82,4.82 2.66,0 4.82,-2.16 4.82,-4.82 z"
       style="fill:none;stroke:#ed7d31;stroke-width:1.37670004;stroke-linecap:butt;stroke-linejoin:round;stroke-miterlimit:10;stroke-dasharray:none;stroke-opacity:1"
       id="path44"
       inkscape:connector-curvature="0" /><path
       d="m 540.55,308.74 c 0,-2.66 -2.16,-4.82 -4.82,-4.82 -2.66,0 -4.82,2.16 -4.82,4.82 0,2.66 2.16,4.82 4.82,4.82 2.66,0 4.82,-2.16 4.82,-4.82 z"
       style="fill:#ed7d31;fill-opacity:1;fill-rule:nonzero;stroke:none"
       id="path46"
       inkscape:connector-curvature="0" /><path
       d="m 540.55,308.74 c 0,-2.66 -2.16,-4.82 -4.82,-4.82 -2.66,0 -4.82,2.16 -4.82,4.82 0,2.66 2.16,4.82 4.82,4.82 2.66,0 4.82,-2.16 4.82,-4.82 z"
       style="fill:none;stroke:#ed7d31;stroke-width:1.37670004;stroke-linecap:butt;stroke-linejoin:round;stroke-miterlimit:10;stroke-dasharray:none;stroke-opacity:1"
       id="path48"
       inkscape:connector-curvature="0" /><path
       d="m 607.32,314.94 c 0,-2.67 -2.16,-4.82 -4.82,-4.82 -2.66,0 -4.82,2.15 -4.82,4.82 0,2.66 2.16,4.81 4.82,4.81 2.66,0 4.82,-2.15 4.82,-4.81 z"
       style="fill:#ed7d31;fill-opacity:1;fill-rule:nonzero;stroke:none"
       id="path50"
       inkscape:connector-curvature="0" /><path
       d="m 607.32,314.94 c 0,-2.67 -2.16,-4.82 -4.82,-4.82 -2.66,0 -4.82,2.15 -4.82,4.82 0,2.66 2.16,4.81 4.82,4.81 2.66,0 4.82,-2.15 4.82,-4.81 z"
       style="fill:none;stroke:#ed7d31;stroke-width:1.37670004;stroke-linecap:butt;stroke-linejoin:round;stroke-miterlimit:10;stroke-dasharray:none;stroke-opacity:1"
       id="path52"
       inkscape:connector-curvature="0" /><path
       d="m 674.31,302.55 c 0,-2.67 -2.15,-4.82 -4.81,-4.82 -2.66,0 -4.82,2.15 -4.82,4.82 0,2.66 2.16,4.81 4.82,4.81 2.66,0 4.81,-2.15 4.81,-4.81 z"
       style="fill:#ed7d31;fill-opacity:1;fill-rule:nonzero;stroke:none"
       id="path54"
       inkscape:connector-curvature="0" /><path
       d="m 674.31,302.55 c 0,-2.67 -2.15,-4.82 -4.81,-4.82 -2.66,0 -4.82,2.15 -4.82,4.82 0,2.66 2.16,4.81 4.82,4.81 2.66,0 4.81,-2.15 4.81,-4.81 z"
       style="fill:none;stroke:#ed7d31;stroke-width:1.37670004;stroke-linecap:butt;stroke-linejoin:round;stroke-miterlimit:10;stroke-dasharray:none;stroke-opacity:1"
       id="path56"
       inkscape:connector-curvature="0" /><path
       d="m 741.08,308.74 c 0,-2.66 -2.15,-4.82 -4.81,-4.82 -2.67,0 -4.82,2.16 -4.82,4.82 0,2.66 2.15,4.82 4.82,4.82 2.66,0 4.81,-2.16 4.81,-4.82 z"
       style="fill:#ed7d31;fill-opacity:1;fill-rule:nonzero;stroke:none"
       id="path58"
       inkscape:connector-curvature="0" /><path
       d="m 741.08,308.74 c 0,-2.66 -2.15,-4.82 -4.81,-4.82 -2.67,0 -4.82,2.16 -4.82,4.82 0,2.66 2.15,4.82 4.82,4.82 2.66,0 4.81,-2.16 4.81,-4.82 z"
       style="fill:none;stroke:#ed7d31;stroke-width:1.37670004;stroke-linecap:butt;stroke-linejoin:round;stroke-miterlimit:10;stroke-dasharray:none;stroke-opacity:1"
       id="path60"
       inkscape:connector-curvature="0" /><path
       d="m 134.89,314.96 66.76,6.37 66.77,-12.56 67,0 66.77,-6.21 66.77,12.4 66.77,-4.58 66.77,-1.61 67,1.61 66.71,-7.82"
       style="fill:none;stroke:#a5a5a5;stroke-width:4.30219984;stroke-linecap:round;stroke-linejoin:round;stroke-miterlimit:10;stroke-dasharray:none;stroke-opacity:1"
       id="path62"
       inkscape:connector-curvature="0" /><path
       d="m 139.7,314.94 c 0,-2.67 -2.16,-4.82 -4.82,-4.82 -2.66,0 -4.82,2.15 -4.82,4.82 0,2.66 2.16,4.81 4.82,4.81 2.66,0 4.82,-2.15 4.82,-4.81 z"
       style="fill:#a5a5a5;fill-opacity:1;fill-rule:nonzero;stroke:none"
       id="path64"
       inkscape:connector-curvature="0" /><path
       d="m 139.7,314.94 c 0,-2.67 -2.16,-4.82 -4.82,-4.82 -2.66,0 -4.82,2.15 -4.82,4.82 0,2.66 2.16,4.81 4.82,4.81 2.66,0 4.82,-2.15 4.82,-4.81 z"
       style="fill:none;stroke:#a5a5a5;stroke-width:1.37670004;stroke-linecap:butt;stroke-linejoin:round;stroke-miterlimit:10;stroke-dasharray:none;stroke-opacity:1"
       id="path66"
       inkscape:connector-curvature="0" /><path
       d="m 206.47,321.36 c 0,-2.66 -2.16,-4.82 -4.82,-4.82 -2.66,0 -4.82,2.16 -4.82,4.82 0,2.66 2.16,4.82 4.82,4.82 2.66,0 4.82,-2.16 4.82,-4.82 z"
       style="fill:#a5a5a5;fill-opacity:1;fill-rule:nonzero;stroke:none"
       id="path68"
       inkscape:connector-curvature="0" /><path
       d="m 206.47,321.36 c 0,-2.66 -2.16,-4.82 -4.82,-4.82 -2.66,0 -4.82,2.16 -4.82,4.82 0,2.66 2.16,4.82 4.82,4.82 2.66,0 4.82,-2.16 4.82,-4.82 z"
       style="fill:none;stroke:#a5a5a5;stroke-width:1.37670004;stroke-linecap:butt;stroke-linejoin:round;stroke-miterlimit:10;stroke-dasharray:none;stroke-opacity:1"
       id="path70"
       inkscape:connector-curvature="0" /><path
       d="m 273.24,308.74 c 0,-2.66 -2.16,-4.82 -4.82,-4.82 -2.66,0 -4.82,2.16 -4.82,4.82 0,2.66 2.16,4.82 4.82,4.82 2.66,0 4.82,-2.16 4.82,-4.82 z"
       style="fill:#a5a5a5;fill-opacity:1;fill-rule:nonzero;stroke:none"
       id="path72"
       inkscape:connector-curvature="0" /><path
       d="m 273.24,308.74 c 0,-2.66 -2.16,-4.82 -4.82,-4.82 -2.66,0 -4.82,2.16 -4.82,4.82 0,2.66 2.16,4.82 4.82,4.82 2.66,0 4.82,-2.16 4.82,-4.82 z"
       style="fill:none;stroke:#a5a5a5;stroke-width:1.37670004;stroke-linecap:butt;stroke-linejoin:round;stroke-miterlimit:10;stroke-dasharray:none;stroke-opacity:1"
       id="path74"
       inkscape:connector-curvature="0" /><path
       d="m 340.24,308.74 c 0,-2.66 -2.16,-4.82 -4.82,-4.82 -2.66,0 -4.82,2.16 -4.82,4.82 0,2.66 2.16,4.82 4.82,4.82 2.66,0 4.82,-2.16 4.82,-4.82 z"
       style="fill:#a5a5a5;fill-opacity:1;fill-rule:nonzero;stroke:none"
       id="path76"
       inkscape:connector-curvature="0" /><path
       d="m 340.24,308.74 c 0,-2.66 -2.16,-4.82 -4.82,-4.82 -2.66,0 -4.82,2.16 -4.82,4.82 0,2.66 2.16,4.82 4.82,4.82 2.66,0 4.82,-2.16 4.82,-4.82 z"
       style="fill:none;stroke:#a5a5a5;stroke-width:1.37670004;stroke-linecap:butt;stroke-linejoin:round;stroke-miterlimit:10;stroke-dasharray:none;stroke-opacity:1"
       id="path78"
       inkscape:connector-curvature="0" /><path
       d="m 407.01,302.55 c 0,-2.67 -2.16,-4.82 -4.82,-4.82 -2.66,0 -4.82,2.15 -4.82,4.82 0,2.66 2.16,4.81 4.82,4.81 2.66,0 4.82,-2.15 4.82,-4.81 z"
       style="fill:#a5a5a5;fill-opacity:1;fill-rule:nonzero;stroke:none"
       id="path80"
       inkscape:connector-curvature="0" /><path
       d="m 407.01,302.55 c 0,-2.67 -2.16,-4.82 -4.82,-4.82 -2.66,0 -4.82,2.15 -4.82,4.82 0,2.66 2.16,4.81 4.82,4.81 2.66,0 4.82,-2.15 4.82,-4.81 z"
       style="fill:none;stroke:#a5a5a5;stroke-width:1.37670004;stroke-linecap:butt;stroke-linejoin:round;stroke-miterlimit:10;stroke-dasharray:none;stroke-opacity:1"
       id="path82"
       inkscape:connector-curvature="0" /><path
       d="m 473.78,314.94 c 0,-2.67 -2.16,-4.82 -4.82,-4.82 -2.66,0 -4.82,2.15 -4.82,4.82 0,2.66 2.16,4.81 4.82,4.81 2.66,0 4.82,-2.15 4.82,-4.81 z"
       style="fill:#a5a5a5;fill-opacity:1;fill-rule:nonzero;stroke:none"
       id="path84"
       inkscape:connector-curvature="0" /><path
       d="m 473.78,314.94 c 0,-2.67 -2.16,-4.82 -4.82,-4.82 -2.66,0 -4.82,2.15 -4.82,4.82 0,2.66 2.16,4.81 4.82,4.81 2.66,0 4.82,-2.15 4.82,-4.81 z"
       style="fill:none;stroke:#a5a5a5;stroke-width:1.37670004;stroke-linecap:butt;stroke-linejoin:round;stroke-miterlimit:10;stroke-dasharray:none;stroke-opacity:1"
       id="path86"
       inkscape:connector-curvature="0" /><path
       d="m 540.55,310.35 c 0,-2.66 -2.16,-4.82 -4.82,-4.82 -2.66,0 -4.82,2.16 -4.82,4.82 0,2.66 2.16,4.82 4.82,4.82 2.66,0 4.82,-2.16 4.82,-4.82 z"
       style="fill:#a5a5a5;fill-opacity:1;fill-rule:nonzero;stroke:none"
       id="path88"
       inkscape:connector-curvature="0" /><path
       d="m 540.55,310.35 c 0,-2.66 -2.16,-4.82 -4.82,-4.82 -2.66,0 -4.82,2.16 -4.82,4.82 0,2.66 2.16,4.82 4.82,4.82 2.66,0 4.82,-2.16 4.82,-4.82 z"
       style="fill:none;stroke:#a5a5a5;stroke-width:1.37670004;stroke-linecap:butt;stroke-linejoin:round;stroke-miterlimit:10;stroke-dasharray:none;stroke-opacity:1"
       id="path90"
       inkscape:connector-curvature="0" /><path
       d="m 607.32,308.74 c 0,-2.66 -2.16,-4.82 -4.82,-4.82 -2.66,0 -4.82,2.16 -4.82,4.82 0,2.66 2.16,4.82 4.82,4.82 2.66,0 4.82,-2.16 4.82,-4.82 z"
       style="fill:#a5a5a5;fill-opacity:1;fill-rule:nonzero;stroke:none"
       id="path92"
       inkscape:connector-curvature="0" /><path
       d="m 607.32,308.74 c 0,-2.66 -2.16,-4.82 -4.82,-4.82 -2.66,0 -4.82,2.16 -4.82,4.82 0,2.66 2.16,4.82 4.82,4.82 2.66,0 4.82,-2.16 4.82,-4.82 z"
       style="fill:none;stroke:#a5a5a5;stroke-width:1.37670004;stroke-linecap:butt;stroke-linejoin:round;stroke-miterlimit:10;stroke-dasharray:none;stroke-opacity:1"
       id="path94"
       inkscape:connector-curvature="0" /><path
       d="m 674.31,310.35 c 0,-2.66 -2.15,-4.82 -4.81,-4.82 -2.66,0 -4.82,2.16 -4.82,4.82 0,2.66 2.16,4.82 4.82,4.82 2.66,0 4.81,-2.16 4.81,-4.82 z"
       style="fill:#a5a5a5;fill-opacity:1;fill-rule:nonzero;stroke:none"
       id="path96"
       inkscape:connector-curvature="0" /><path
       d="m 674.31,310.35 c 0,-2.66 -2.15,-4.82 -4.81,-4.82 -2.66,0 -4.82,2.16 -4.82,4.82 0,2.66 2.16,4.82 4.82,4.82 2.66,0 4.81,-2.16 4.81,-4.82 z"
       style="fill:none;stroke:#a5a5a5;stroke-width:1.37670004;stroke-linecap:butt;stroke-linejoin:round;stroke-miterlimit:10;stroke-dasharray:none;stroke-opacity:1"
       id="path98"
       inkscape:connector-curvature="0" /><path
       d="m 741.08,302.55 c 0,-2.67 -2.15,-4.82 -4.81,-4.82 -2.67,0 -4.82,2.15 -4.82,4.82 0,2.66 2.15,4.81 4.82,4.81 2.66,0 4.81,-2.15 4.81,-4.81 z"
       style="fill:#a5a5a5;fill-opacity:1;fill-rule:nonzero;stroke:none"
       id="path100"
       inkscape:connector-curvature="0" /><path
       d="m 741.08,302.55 c 0,-2.67 -2.15,-4.82 -4.81,-4.82 -2.67,0 -4.82,2.15 -4.82,4.82 0,2.66 2.15,4.81 4.82,4.81 2.66,0 4.81,-2.15 4.81,-4.81 z"
       style="fill:none;stroke:#a5a5a5;stroke-width:1.37670004;stroke-linecap:butt;stroke-linejoin:round;stroke-miterlimit:10;stroke-dasharray:none;stroke-opacity:1"
       id="path102"
       inkscape:connector-curvature="0" /><path
       d="m 134.89,327.58 66.76,-6.19 66.77,-18.83 67,0 66.77,18.83 66.77,-12.62 66.77,-6.21 66.77,1.62 67,4.59 66.71,0"
       style="fill:none;stroke:#ffc000;stroke-width:4.30219984;stroke-linecap:round;stroke-linejoin:round;stroke-miterlimit:10;stroke-dasharray:none;stroke-opacity:1"
       id="path104"
       inkscape:connector-curvature="0" /><path
       d="m 139.7,327.56 c 0,-2.67 -2.16,-4.82 -4.82,-4.82 -2.66,0 -4.82,2.15 -4.82,4.82 0,2.66 2.16,4.81 4.82,4.81 2.66,0 4.82,-2.15 4.82,-4.81 z"
       style="fill:#ffc000;fill-opacity:1;fill-rule:nonzero;stroke:none"
       id="path106"
       inkscape:connector-curvature="0" /><path
       d="m 139.7,327.56 c 0,-2.67 -2.16,-4.82 -4.82,-4.82 -2.66,0 -4.82,2.15 -4.82,4.82 0,2.66 2.16,4.81 4.82,4.81 2.66,0 4.82,-2.15 4.82,-4.81 z"
       style="fill:none;stroke:#ffc000;stroke-width:1.37670004;stroke-linecap:butt;stroke-linejoin:round;stroke-miterlimit:10;stroke-dasharray:none;stroke-opacity:1"
       id="path108"
       inkscape:connector-curvature="0" /><path
       d="m 206.47,321.36 c 0,-2.66 -2.16,-4.82 -4.82,-4.82 -2.66,0 -4.82,2.16 -4.82,4.82 0,2.66 2.16,4.82 4.82,4.82 2.66,0 4.82,-2.16 4.82,-4.82 z"
       style="fill:#ffc000;fill-opacity:1;fill-rule:nonzero;stroke:none"
       id="path110"
       inkscape:connector-curvature="0" /><path
       d="m 206.47,321.36 c 0,-2.66 -2.16,-4.82 -4.82,-4.82 -2.66,0 -4.82,2.16 -4.82,4.82 0,2.66 2.16,4.82 4.82,4.82 2.66,0 4.82,-2.16 4.82,-4.82 z"
       style="fill:none;stroke:#ffc000;stroke-width:1.37670004;stroke-linecap:butt;stroke-linejoin:round;stroke-miterlimit:10;stroke-dasharray:none;stroke-opacity:1"
       id="path112"
       inkscape:connector-curvature="0" /><path
       d="m 273.24,302.55 c 0,-2.67 -2.16,-4.82 -4.82,-4.82 -2.66,0 -4.82,2.15 -4.82,4.82 0,2.66 2.16,4.81 4.82,4.81 2.66,0 4.82,-2.15 4.82,-4.81 z"
       style="fill:#ffc000;fill-opacity:1;fill-rule:nonzero;stroke:none"
       id="path114"
       inkscape:connector-curvature="0" /><path
       d="m 273.24,302.55 c 0,-2.67 -2.16,-4.82 -4.82,-4.82 -2.66,0 -4.82,2.15 -4.82,4.82 0,2.66 2.16,4.81 4.82,4.81 2.66,0 4.82,-2.15 4.82,-4.81 z"
       style="fill:none;stroke:#ffc000;stroke-width:1.37670004;stroke-linecap:butt;stroke-linejoin:round;stroke-miterlimit:10;stroke-dasharray:none;stroke-opacity:1"
       id="path116"
       inkscape:connector-curvature="0" /><path
       d="m 340.24,302.55 c 0,-2.67 -2.16,-4.82 -4.82,-4.82 -2.66,0 -4.82,2.15 -4.82,4.82 0,2.66 2.16,4.81 4.82,4.81 2.66,0 4.82,-2.15 4.82,-4.81 z"
       style="fill:#ffc000;fill-opacity:1;fill-rule:nonzero;stroke:none"
       id="path118"
       inkscape:connector-curvature="0" /><path
       d="m 340.24,302.55 c 0,-2.67 -2.16,-4.82 -4.82,-4.82 -2.66,0 -4.82,2.15 -4.82,4.82 0,2.66 2.16,4.81 4.82,4.81 2.66,0 4.82,-2.15 4.82,-4.81 z"
       style="fill:none;stroke:#ffc000;stroke-width:1.37670004;stroke-linecap:butt;stroke-linejoin:round;stroke-miterlimit:10;stroke-dasharray:none;stroke-opacity:1"
       id="path120"
       inkscape:connector-curvature="0" /><path
       d="m 407.01,321.36 c 0,-2.66 -2.16,-4.82 -4.82,-4.82 -2.66,0 -4.82,2.16 -4.82,4.82 0,2.66 2.16,4.82 4.82,4.82 2.66,0 4.82,-2.16 4.82,-4.82 z"
       style="fill:#ffc000;fill-opacity:1;fill-rule:nonzero;stroke:none"
       id="path122"
       inkscape:connector-curvature="0" /><path
       d="m 407.01,321.36 c 0,-2.66 -2.16,-4.82 -4.82,-4.82 -2.66,0 -4.82,2.16 -4.82,4.82 0,2.66 2.16,4.82 4.82,4.82 2.66,0 4.82,-2.16 4.82,-4.82 z"
       style="fill:none;stroke:#ffc000;stroke-width:1.37670004;stroke-linecap:butt;stroke-linejoin:round;stroke-miterlimit:10;stroke-dasharray:none;stroke-opacity:1"
       id="path124"
       inkscape:connector-curvature="0" /><path
       d="m 473.78,308.74 c 0,-2.66 -2.16,-4.82 -4.82,-4.82 -2.66,0 -4.82,2.16 -4.82,4.82 0,2.66 2.16,4.82 4.82,4.82 2.66,0 4.82,-2.16 4.82,-4.82 z"
       style="fill:#ffc000;fill-opacity:1;fill-rule:nonzero;stroke:none"
       id="path126"
       inkscape:connector-curvature="0" /><path
       d="m 473.78,308.74 c 0,-2.66 -2.16,-4.82 -4.82,-4.82 -2.66,0 -4.82,2.16 -4.82,4.82 0,2.66 2.16,4.82 4.82,4.82 2.66,0 4.82,-2.16 4.82,-4.82 z"
       style="fill:none;stroke:#ffc000;stroke-width:1.37670004;stroke-linecap:butt;stroke-linejoin:round;stroke-miterlimit:10;stroke-dasharray:none;stroke-opacity:1"
       id="path128"
       inkscape:connector-curvature="0" /><path
       d="m 540.55,302.55 c 0,-2.67 -2.16,-4.82 -4.82,-4.82 -2.66,0 -4.82,2.15 -4.82,4.82 0,2.66 2.16,4.81 4.82,4.81 2.66,0 4.82,-2.15 4.82,-4.81 z"
       style="fill:#ffc000;fill-opacity:1;fill-rule:nonzero;stroke:none"
       id="path130"
       inkscape:connector-curvature="0" /><path
       d="m 540.55,302.55 c 0,-2.67 -2.16,-4.82 -4.82,-4.82 -2.66,0 -4.82,2.15 -4.82,4.82 0,2.66 2.16,4.81 4.82,4.81 2.66,0 4.82,-2.15 4.82,-4.81 z"
       style="fill:none;stroke:#ffc000;stroke-width:1.37670004;stroke-linecap:butt;stroke-linejoin:round;stroke-miterlimit:10;stroke-dasharray:none;stroke-opacity:1"
       id="path132"
       inkscape:connector-curvature="0" /><path
       d="m 607.32,304.15 c 0,-2.66 -2.16,-4.82 -4.82,-4.82 -2.66,0 -4.82,2.16 -4.82,4.82 0,2.66 2.16,4.82 4.82,4.82 2.66,0 4.82,-2.16 4.82,-4.82 z"
       style="fill:#ffc000;fill-opacity:1;fill-rule:nonzero;stroke:none"
       id="path134"
       inkscape:connector-curvature="0" /><path
       d="m 607.32,304.15 c 0,-2.66 -2.16,-4.82 -4.82,-4.82 -2.66,0 -4.82,2.16 -4.82,4.82 0,2.66 2.16,4.82 4.82,4.82 2.66,0 4.82,-2.16 4.82,-4.82 z"
       style="fill:none;stroke:#ffc000;stroke-width:1.37670004;stroke-linecap:butt;stroke-linejoin:round;stroke-miterlimit:10;stroke-dasharray:none;stroke-opacity:1"
       id="path136"
       inkscape:connector-curvature="0" /><path
       d="m 674.31,308.74 c 0,-2.66 -2.15,-4.82 -4.81,-4.82 -2.66,0 -4.82,2.16 -4.82,4.82 0,2.66 2.16,4.82 4.82,4.82 2.66,0 4.81,-2.16 4.81,-4.82 z"
       style="fill:#ffc000;fill-opacity:1;fill-rule:nonzero;stroke:none"
       id="path138"
       inkscape:connector-curvature="0" /><path
       d="m 674.31,308.74 c 0,-2.66 -2.15,-4.82 -4.81,-4.82 -2.66,0 -4.82,2.16 -4.82,4.82 0,2.66 2.16,4.82 4.82,4.82 2.66,0 4.81,-2.16 4.81,-4.82 z"
       style="fill:none;stroke:#ffc000;stroke-width:1.37670004;stroke-linecap:butt;stroke-linejoin:round;stroke-miterlimit:10;stroke-dasharray:none;stroke-opacity:1"
       id="path140"
       inkscape:connector-curvature="0" /><path
       d="m 741.08,308.74 c 0,-2.66 -2.15,-4.82 -4.81,-4.82 -2.67,0 -4.82,2.16 -4.82,4.82 0,2.66 2.15,4.82 4.82,4.82 2.66,0 4.81,-2.16 4.81,-4.82 z"
       style="fill:#ffc000;fill-opacity:1;fill-rule:nonzero;stroke:none"
       id="path142"
       inkscape:connector-curvature="0" /><path
       d="m 741.08,308.74 c 0,-2.66 -2.15,-4.82 -4.81,-4.82 -2.67,0 -4.82,2.16 -4.82,4.82 0,2.66 2.15,4.82 4.82,4.82 2.66,0 4.81,-2.16 4.81,-4.82 z"
       style="fill:none;stroke:#ffc000;stroke-width:1.37670004;stroke-linecap:butt;stroke-linejoin:round;stroke-miterlimit:10;stroke-dasharray:none;stroke-opacity:1"
       id="path144"
       inkscape:connector-curvature="0" /><g
       id="g146"><g
         id="g148"
         clip-path="url(#clipPath150)"><text
           transform="matrix(1,0,0,-1,76.8,181.06)"
           style="font-variant:normal;font-weight:normal;font-size:17.20800018px;font-family:Calibri;-inkscape-font-specification:Calibri;writing-mode:lr-tb;fill:#595959;fill-opacity:1;fill-rule:nonzero;stroke:none"
           id="text154"><tspan
             x="0"
             y="0"
             id="tspan156">0</tspan></text>
</g></g><g
       id="g158"><g
         id="g160"
         clip-path="url(#clipPath162)"><text
           transform="matrix(1,0,0,-1,63.792,205.13)"
           style="font-variant:normal;font-weight:normal;font-size:17.20800018px;font-family:Calibri;-inkscape-font-specification:Calibri;writing-mode:lr-tb;fill:#595959;fill-opacity:1;fill-rule:nonzero;stroke:none"
           id="text166"><tspan
             x="0 8.7244558 13.060872"
             y="0"
             sodipodi:role="line"
             id="tspan168">0,1</tspan></text>
</g></g><g
       id="g170"><g
         id="g172"
         clip-path="url(#clipPath174)"><text
           transform="matrix(1,0,0,-1,63.792,229.2)"
           style="font-variant:normal;font-weight:normal;font-size:17.20800018px;font-family:Calibri;-inkscape-font-specification:Calibri;writing-mode:lr-tb;fill:#595959;fill-opacity:1;fill-rule:nonzero;stroke:none"
           id="text178"><tspan
             x="0 8.7244558 13.060872"
             y="0"
             sodipodi:role="line"
             id="tspan180">0,2</tspan></text>
</g></g><g
       id="g182"><g
         id="g184"
         clip-path="url(#clipPath186)"><text
           transform="matrix(1,0,0,-1,63.792,253.27)"
           style="font-variant:normal;font-weight:normal;font-size:17.20800018px;font-family:Calibri;-inkscape-font-specification:Calibri;writing-mode:lr-tb;fill:#595959;fill-opacity:1;fill-rule:nonzero;stroke:none"
           id="text190"><tspan
             x="0 8.7244558 13.060872"
             y="0"
             sodipodi:role="line"
             id="tspan192">0,3</tspan></text>
</g></g><g
       id="g194"><g
         id="g196"
         clip-path="url(#clipPath198)"><text
           transform="matrix(1,0,0,-1,63.792,277.34)"
           style="font-variant:normal;font-weight:normal;font-size:17.20800018px;font-family:Calibri;-inkscape-font-specification:Calibri;writing-mode:lr-tb;fill:#595959;fill-opacity:1;fill-rule:nonzero;stroke:none"
           id="text202"><tspan
             x="0 8.7244558 13.060872"
             y="0"
             sodipodi:role="line"
             id="tspan204">0,4</tspan></text>
</g></g><g
       id="g206"><g
         id="g208"
         clip-path="url(#clipPath210)"><text
           transform="matrix(1,0,0,-1,63.792,301.42)"
           style="font-variant:normal;font-weight:normal;font-size:17.20800018px;font-family:Calibri;-inkscape-font-specification:Calibri;writing-mode:lr-tb;fill:#595959;fill-opacity:1;fill-rule:nonzero;stroke:none"
           id="text214"><tspan
             x="0 8.7244558 13.060872"
             y="0"
             sodipodi:role="line"
             id="tspan216">0,5</tspan></text>
</g></g><g
       id="g218"><g
         id="g220"
         clip-path="url(#clipPath222)"><text
           transform="matrix(1,0,0,-1,63.792,325.49)"
           style="font-variant:normal;font-weight:normal;font-size:17.20800018px;font-family:Calibri;-inkscape-font-specification:Calibri;writing-mode:lr-tb;fill:#595959;fill-opacity:1;fill-rule:nonzero;stroke:none"
           id="text226"><tspan
             x="0 8.7244558 13.060872"
             y="0"
             sodipodi:role="line"
             id="tspan228">0,6</tspan></text>
</g></g><g
       id="g230"><g
         id="g232"
         clip-path="url(#clipPath234)"><text
           transform="matrix(1,0,0,-1,63.792,349.56)"
           style="font-variant:normal;font-weight:normal;font-size:17.20800018px;font-family:Calibri;-inkscape-font-specification:Calibri;writing-mode:lr-tb;fill:#595959;fill-opacity:1;fill-rule:nonzero;stroke:none"
           id="text238"><tspan
             x="0 8.7244558 13.060872"
             y="0"
             sodipodi:role="line"
             id="tspan240">0,7</tspan></text>
</g></g><g
       id="g242"><g
         id="g244"
         clip-path="url(#clipPath246)"><text
           transform="matrix(1,0,0,-1,63.792,373.63)"
           style="font-variant:normal;font-weight:normal;font-size:17.20800018px;font-family:Calibri;-inkscape-font-specification:Calibri;writing-mode:lr-tb;fill:#595959;fill-opacity:1;fill-rule:nonzero;stroke:none"
           id="text250"><tspan
             x="0 8.7244558 13.060872"
             y="0"
             sodipodi:role="line"
             id="tspan252">0,8</tspan></text>
</g></g><g
       id="g254"><g
         id="g256"
         clip-path="url(#clipPath258)"><text
           transform="matrix(1,0,0,-1,63.792,397.7)"
           style="font-variant:normal;font-weight:normal;font-size:17.20800018px;font-family:Calibri;-inkscape-font-specification:Calibri;writing-mode:lr-tb;fill:#595959;fill-opacity:1;fill-rule:nonzero;stroke:none"
           id="text262"><tspan
             x="0 8.7244558 13.060872"
             y="0"
             sodipodi:role="line"
             id="tspan264">0,9</tspan></text>
</g></g><g
       id="g266"><g
         id="g268"
         clip-path="url(#clipPath270)"><text
           transform="matrix(1,0,0,-1,76.8,421.78)"
           style="font-variant:normal;font-weight:normal;font-size:17.20800018px;font-family:Calibri;-inkscape-font-specification:Calibri;writing-mode:lr-tb;fill:#595959;fill-opacity:1;fill-rule:nonzero;stroke:none"
           id="text274"><tspan
             x="0"
             y="0"
             id="tspan276">1</tspan></text>
</g></g><g
       id="g278"><g
         id="g280"
         clip-path="url(#clipPath282)"><text
           transform="matrix(1,0,0,-1,130.54,158.66)"
           style="font-variant:normal;font-weight:normal;font-size:17.20800018px;font-family:Calibri;-inkscape-font-specification:Calibri;writing-mode:lr-tb;fill:#595959;fill-opacity:1;fill-rule:nonzero;stroke:none"
           id="text286"><tspan
             x="0"
             y="0"
             id="tspan288">1</tspan></text>
</g></g><g
       id="g290"><g
         id="g292"
         clip-path="url(#clipPath294)"><text
           transform="matrix(1,0,0,-1,197.38,158.66)"
           style="font-variant:normal;font-weight:normal;font-size:17.20800018px;font-family:Calibri;-inkscape-font-specification:Calibri;writing-mode:lr-tb;fill:#595959;fill-opacity:1;fill-rule:nonzero;stroke:none"
           id="text298"><tspan
             x="0"
             y="0"
             id="tspan300">2</tspan></text>
</g></g><g
       id="g302"><g
         id="g304"
         clip-path="url(#clipPath306)"><text
           transform="matrix(1,0,0,-1,264.19,158.66)"
           style="font-variant:normal;font-weight:normal;font-size:17.20800018px;font-family:Calibri;-inkscape-font-specification:Calibri;writing-mode:lr-tb;fill:#595959;fill-opacity:1;fill-rule:nonzero;stroke:none"
           id="text310"><tspan
             x="0"
             y="0"
             id="tspan312">3</tspan></text>
</g></g><g
       id="g314"><g
         id="g316"
         clip-path="url(#clipPath318)"><text
           transform="matrix(1,0,0,-1,331.01,158.66)"
           style="font-variant:normal;font-weight:normal;font-size:17.20800018px;font-family:Calibri;-inkscape-font-specification:Calibri;writing-mode:lr-tb;fill:#595959;fill-opacity:1;fill-rule:nonzero;stroke:none"
           id="text322"><tspan
             x="0"
             y="0"
             id="tspan324">4</tspan></text>
</g></g><g
       id="g326"><g
         id="g328"
         clip-path="url(#clipPath330)"><text
           transform="matrix(1,0,0,-1,397.85,158.66)"
           style="font-variant:normal;font-weight:normal;font-size:17.20800018px;font-family:Calibri;-inkscape-font-specification:Calibri;writing-mode:lr-tb;fill:#595959;fill-opacity:1;fill-rule:nonzero;stroke:none"
           id="text334"><tspan
             x="0"
             y="0"
             id="tspan336">5</tspan></text>
</g></g><g
       id="g338"><g
         id="g340"
         clip-path="url(#clipPath342)"><text
           transform="matrix(1,0,0,-1,464.66,158.66)"
           style="font-variant:normal;font-weight:normal;font-size:17.20800018px;font-family:Calibri;-inkscape-font-specification:Calibri;writing-mode:lr-tb;fill:#595959;fill-opacity:1;fill-rule:nonzero;stroke:none"
           id="text346"><tspan
             x="0"
             y="0"
             id="tspan348">6</tspan></text>
</g></g><g
       id="g350"><g
         id="g352"
         clip-path="url(#clipPath354)"><text
           transform="matrix(1,0,0,-1,531.48,158.66)"
           style="font-variant:normal;font-weight:normal;font-size:17.20800018px;font-family:Calibri;-inkscape-font-specification:Calibri;writing-mode:lr-tb;fill:#595959;fill-opacity:1;fill-rule:nonzero;stroke:none"
           id="text358"><tspan
             x="0"
             y="0"
             id="tspan360">7</tspan></text>
</g></g><g
       id="g362"><g
         id="g364"
         clip-path="url(#clipPath366)"><text
           transform="matrix(1,0,0,-1,598.3,158.66)"
           style="font-variant:normal;font-weight:normal;font-size:17.20800018px;font-family:Calibri;-inkscape-font-specification:Calibri;writing-mode:lr-tb;fill:#595959;fill-opacity:1;fill-rule:nonzero;stroke:none"
           id="text370"><tspan
             x="0"
             y="0"
             id="tspan372">8</tspan></text>
</g></g><g
       id="g374"><g
         id="g376"
         clip-path="url(#clipPath378)"><text
           transform="matrix(1,0,0,-1,665.14,158.66)"
           style="font-variant:normal;font-weight:normal;font-size:17.20800018px;font-family:Calibri;-inkscape-font-specification:Calibri;writing-mode:lr-tb;fill:#595959;fill-opacity:1;fill-rule:nonzero;stroke:none"
           id="text382"><tspan
             x="0"
             y="0"
             id="tspan384">9</tspan></text>
</g></g><g
       id="g386"><g
         id="g388"
         clip-path="url(#clipPath390)"><text
           transform="matrix(1,0,0,-1,727.58,158.66)"
           style="font-variant:normal;font-weight:normal;font-size:17.20800018px;font-family:Calibri;-inkscape-font-specification:Calibri;writing-mode:lr-tb;fill:#595959;fill-opacity:1;fill-rule:nonzero;stroke:none"
           id="text394"><tspan
             x="0 8.7359562"
             y="0"
             sodipodi:role="line"
             id="tspan396">10</tspan></text>
</g></g><g
       id="g398"><g
         id="g400"
         clip-path="url(#clipPath402)"><text
           transform="scale(1,-1)"
           style="font-variant:normal;font-weight:normal;font-size:26.8560009px;font-family:Calibri;-inkscape-font-specification:Calibri;writing-mode:lr-tb;fill:#595959;fill-opacity:1;fill-rule:nonzero;stroke:none"
           id="text406"
           x="224.06"
           y="-464"><tspan
             x="224.06 238.29369 244.47057"
             y="-464"
             sodipodi:role="line"
             id="tspan408">Clustering depth: Balanced Accuracy</tspan></text>
</g></g><path
       d="m 192.76,125.48 36.71,0"
       style="fill:none;stroke:#ed7d31;stroke-width:4.30219984;stroke-linecap:round;stroke-linejoin:round;stroke-miterlimit:10;stroke-dasharray:none;stroke-opacity:1"
       id="path410"
       inkscape:connector-curvature="0" /><path
       d="m 215.88,125.67 c 0,-2.66 -2.16,-4.82 -4.82,-4.82 -2.66,0 -4.82,2.16 -4.82,4.82 0,2.66 2.16,4.82 4.82,4.82 2.66,0 4.82,-2.16 4.82,-4.82 z"
       style="fill:#ed7d31;fill-opacity:1;fill-rule:nonzero;stroke:none"
       id="path412"
       inkscape:connector-curvature="0" /><path
       d="m 215.88,125.67 c 0,-2.66 -2.16,-4.82 -4.82,-4.82 -2.66,0 -4.82,2.16 -4.82,4.82 0,2.66 2.16,4.82 4.82,4.82 2.66,0 4.82,-2.16 4.82,-4.82 z"
       style="fill:none;stroke:#ed7d31;stroke-width:1.43410003;stroke-linecap:butt;stroke-linejoin:round;stroke-miterlimit:10;stroke-dasharray:none;stroke-opacity:1"
       id="path414"
       inkscape:connector-curvature="0" /><g
       id="g416"><g
         id="g418"
         clip-path="url(#clipPath420)"><text
           transform="matrix(1,0,0,-1,233.38,120.55)"
           style="font-variant:normal;font-weight:normal;font-size:17.20800018px;font-family:Calibri;-inkscape-font-specification:Calibri;writing-mode:lr-tb;fill:#595959;fill-opacity:1;fill-rule:nonzero;stroke:none"
           id="text424"><tspan
             x="0"
             y="0"
             sodipodi:role="line"
             id="tspan426">BESTFIT </tspan></text>
</g></g><path
       d="m 356.04,125.48 36.71,0"
       style="fill:none;stroke:#a5a5a5;stroke-width:4.30219984;stroke-linecap:round;stroke-linejoin:round;stroke-miterlimit:10;stroke-dasharray:none;stroke-opacity:1"
       id="path428"
       inkscape:connector-curvature="0" /><path
       d="m 379.01,125.67 c 0,-2.66 -2.15,-4.82 -4.81,-4.82 -2.67,0 -4.82,2.16 -4.82,4.82 0,2.66 2.15,4.82 4.82,4.82 2.66,0 4.81,-2.16 4.81,-4.82 z"
       style="fill:#a5a5a5;fill-opacity:1;fill-rule:nonzero;stroke:none"
       id="path430"
       inkscape:connector-curvature="0" /><path
       d="m 379.01,125.67 c 0,-2.66 -2.15,-4.82 -4.81,-4.82 -2.67,0 -4.82,2.16 -4.82,4.82 0,2.66 2.15,4.82 4.82,4.82 2.66,0 4.81,-2.16 4.81,-4.82 z"
       style="fill:none;stroke:#a5a5a5;stroke-width:1.43410003;stroke-linecap:butt;stroke-linejoin:round;stroke-miterlimit:10;stroke-dasharray:none;stroke-opacity:1"
       id="path432"
       inkscape:connector-curvature="0" /><g
       id="g434"><g
         id="g436"
         clip-path="url(#clipPath438)"><text
           transform="matrix(1,0,0,-1,396.67,120.55)"
           style="font-variant:normal;font-weight:normal;font-size:17.20800018px;font-family:Calibri;-inkscape-font-specification:Calibri;writing-mode:lr-tb;fill:#595959;fill-opacity:1;fill-rule:nonzero;stroke:none"
           id="text442"><tspan
             x="0"
             sodipodi:role="line"
             id="tspan444"
             y="0">FULLFIT </tspan></text>
</g></g><path
       d="m 519.31,125.48 36.72,0"
       style="fill:none;stroke:#ffc000;stroke-width:4.30219984;stroke-linecap:round;stroke-linejoin:round;stroke-miterlimit:10;stroke-dasharray:none;stroke-opacity:1"
       id="path446"
       inkscape:connector-curvature="0" /><path
       d="m 542.38,125.67 c 0,-2.66 -2.16,-4.82 -4.82,-4.82 -2.66,0 -4.82,2.16 -4.82,4.82 0,2.66 2.16,4.82 4.82,4.82 2.66,0 4.82,-2.16 4.82,-4.82 z"
       style="fill:#ffc000;fill-opacity:1;fill-rule:nonzero;stroke:none"
       id="path448"
       inkscape:connector-curvature="0" /><path
       d="m 542.38,125.67 c 0,-2.66 -2.16,-4.82 -4.82,-4.82 -2.66,0 -4.82,2.16 -4.82,4.82 0,2.66 2.16,4.82 4.82,4.82 2.66,0 4.82,-2.16 4.82,-4.82 z"
       style="fill:none;stroke:#ffc000;stroke-width:1.43410003;stroke-linecap:butt;stroke-linejoin:round;stroke-miterlimit:10;stroke-dasharray:none;stroke-opacity:1"
       id="path450"
       inkscape:connector-curvature="0" /><g
       id="g452"><g
         id="g454"
         clip-path="url(#clipPath456)"><text
           transform="matrix(1,0,0,-1,559.97,120.55)"
           style="font-variant:normal;font-weight:normal;font-size:17.20800018px;font-family:Calibri;-inkscape-font-specification:Calibri;writing-mode:lr-tb;fill:#595959;fill-opacity:1;fill-rule:nonzero;stroke:none"
           id="text460"><tspan
             x="0"
             y="0"
             sodipodi:role="line"
             id="tspan462">REVEAL</tspan></text>
</g></g><path
       d="m 51.361,97.878 739.28,0 0,399.7 -739.28,0 0,-399.7 z"
       style="fill:none;stroke:#d9d9d9;stroke-width:1.43410003;stroke-linecap:butt;stroke-linejoin:round;stroke-miterlimit:10;stroke-dasharray:none;stroke-opacity:1"
       id="path464"
       inkscape:connector-curvature="0" /></g></svg>