<?xml version="1.0" encoding="UTF-8" standalone="no"?>
<!-- Created with Inkscape (http://www.inkscape.org/) -->

<svg
   xmlns:dc="http://purl.org/dc/elements/1.1/"
   xmlns:cc="http://creativecommons.org/ns#"
   xmlns:rdf="http://www.w3.org/1999/02/22-rdf-syntax-ns#"
   xmlns:svg="http://www.w3.org/2000/svg"
   xmlns="http://www.w3.org/2000/svg"
   xmlns:sodipodi="http://sodipodi.sourceforge.net/DTD/sodipodi-0.dtd"
   xmlns:inkscape="http://www.inkscape.org/namespaces/inkscape"
   id="svg2"
   version="1.1"
   inkscape:version="0.91 r13725"
   xml:space="preserve"
   width="925.90399"
   height="501.104"
   viewBox="0 0 925.90397 501.104"
   sodipodi:docname="Indegree_ACC.svg"><metadata
     id="metadata8"><rdf:RDF><cc:Work
         rdf:about=""><dc:format>image/svg+xml</dc:format><dc:type
           rdf:resource="http://purl.org/dc/dcmitype/StillImage" /><dc:title></dc:title></cc:Work></rdf:RDF></metadata><defs
     id="defs6"><clipPath
       clipPathUnits="userSpaceOnUse"
       id="clipPath30"><path
         d="m 51.36,98.04 739.32,0 0,399.48 -739.32,0 0,-399.48 z"
         id="path32"
         inkscape:connector-curvature="0"
         style="clip-rule:evenodd" /></clipPath><clipPath
       clipPathUnits="userSpaceOnUse"
       id="clipPath42"><path
         d="m 51.36,98.04 739.32,0 0,399.48 -739.32,0 0,-399.48 z"
         id="path44"
         inkscape:connector-curvature="0"
         style="clip-rule:evenodd" /></clipPath><clipPath
       clipPathUnits="userSpaceOnUse"
       id="clipPath54"><path
         d="m 51.36,98.04 739.32,0 0,399.48 -739.32,0 0,-399.48 z"
         id="path56"
         inkscape:connector-curvature="0"
         style="clip-rule:evenodd" /></clipPath><clipPath
       clipPathUnits="userSpaceOnUse"
       id="clipPath66"><path
         d="m 51.36,98.04 739.32,0 0,399.48 -739.32,0 0,-399.48 z"
         id="path68"
         inkscape:connector-curvature="0"
         style="clip-rule:evenodd" /></clipPath><clipPath
       clipPathUnits="userSpaceOnUse"
       id="clipPath78"><path
         d="m 51.36,98.04 739.32,0 0,399.48 -739.32,0 0,-399.48 z"
         id="path80"
         inkscape:connector-curvature="0"
         style="clip-rule:evenodd" /></clipPath><clipPath
       clipPathUnits="userSpaceOnUse"
       id="clipPath90"><path
         d="m 51.36,98.04 739.32,0 0,399.48 -739.32,0 0,-399.48 z"
         id="path92"
         inkscape:connector-curvature="0"
         style="clip-rule:evenodd" /></clipPath><clipPath
       clipPathUnits="userSpaceOnUse"
       id="clipPath102"><path
         d="m 51.36,98.04 739.32,0 0,399.48 -739.32,0 0,-399.48 z"
         id="path104"
         inkscape:connector-curvature="0"
         style="clip-rule:evenodd" /></clipPath><clipPath
       clipPathUnits="userSpaceOnUse"
       id="clipPath114"><path
         d="m 51.36,98.04 739.32,0 0,399.48 -739.32,0 0,-399.48 z"
         id="path116"
         inkscape:connector-curvature="0"
         style="clip-rule:evenodd" /></clipPath><clipPath
       clipPathUnits="userSpaceOnUse"
       id="clipPath126"><path
         d="m 51.36,98.04 739.32,0 0,399.48 -739.32,0 0,-399.48 z"
         id="path128"
         inkscape:connector-curvature="0"
         style="clip-rule:evenodd" /></clipPath><clipPath
       clipPathUnits="userSpaceOnUse"
       id="clipPath138"><path
         d="m 51.36,98.04 739.32,0 0,399.48 -739.32,0 0,-399.48 z"
         id="path140"
         inkscape:connector-curvature="0"
         style="clip-rule:evenodd" /></clipPath><clipPath
       clipPathUnits="userSpaceOnUse"
       id="clipPath150"><path
         d="m 51.36,98.04 739.32,0 0,399.48 -739.32,0 0,-399.48 z"
         id="path152"
         inkscape:connector-curvature="0"
         style="clip-rule:evenodd" /></clipPath><clipPath
       clipPathUnits="userSpaceOnUse"
       id="clipPath162"><path
         d="m 51.36,98.04 739.32,0 0,399.48 -739.32,0 0,-399.48 z"
         id="path164"
         inkscape:connector-curvature="0"
         style="clip-rule:evenodd" /></clipPath><clipPath
       clipPathUnits="userSpaceOnUse"
       id="clipPath174"><path
         d="m 51.36,98.04 739.32,0 0,399.48 -739.32,0 0,-399.48 z"
         id="path176"
         inkscape:connector-curvature="0"
         style="clip-rule:evenodd" /></clipPath><clipPath
       clipPathUnits="userSpaceOnUse"
       id="clipPath186"><path
         d="m 51.36,98.04 739.32,0 0,399.48 -739.32,0 0,-399.48 z"
         id="path188"
         inkscape:connector-curvature="0"
         style="clip-rule:evenodd" /></clipPath><clipPath
       clipPathUnits="userSpaceOnUse"
       id="clipPath198"><path
         d="m 51.36,98.04 739.32,0 0,399.48 -739.32,0 0,-399.48 z"
         id="path200"
         inkscape:connector-curvature="0"
         style="clip-rule:evenodd" /></clipPath><clipPath
       clipPathUnits="userSpaceOnUse"
       id="clipPath210"><path
         d="m 51.36,98.04 739.32,0 0,399.48 -739.32,0 0,-399.48 z"
         id="path212"
         inkscape:connector-curvature="0"
         style="clip-rule:evenodd" /></clipPath><clipPath
       clipPathUnits="userSpaceOnUse"
       id="clipPath222"><path
         d="m 51.36,98.04 739.32,0 0,399.48 -739.32,0 0,-399.48 z"
         id="path224"
         inkscape:connector-curvature="0"
         style="clip-rule:evenodd" /></clipPath><clipPath
       clipPathUnits="userSpaceOnUse"
       id="clipPath234"><path
         d="m 51.36,98.04 739.32,0 0,399.48 -739.32,0 0,-399.48 z"
         id="path236"
         inkscape:connector-curvature="0"
         style="clip-rule:evenodd" /></clipPath><clipPath
       clipPathUnits="userSpaceOnUse"
       id="clipPath246"><path
         d="m 51.36,98.04 739.32,0 0,399.48 -739.32,0 0,-399.48 z"
         id="path248"
         inkscape:connector-curvature="0"
         style="clip-rule:evenodd" /></clipPath><clipPath
       clipPathUnits="userSpaceOnUse"
       id="clipPath258"><path
         d="m 51.36,98.04 739.32,0 0,399.48 -739.32,0 0,-399.48 z"
         id="path260"
         inkscape:connector-curvature="0"
         style="clip-rule:evenodd" /></clipPath><clipPath
       clipPathUnits="userSpaceOnUse"
       id="clipPath270"><path
         d="m 51.36,98.04 739.32,0 0,399.48 -739.32,0 0,-399.48 z"
         id="path272"
         inkscape:connector-curvature="0"
         style="clip-rule:evenodd" /></clipPath><clipPath
       clipPathUnits="userSpaceOnUse"
       id="clipPath284"><path
         d="m 51.36,98.04 739.32,0 0,399.48 -739.32,0 0,-399.48 z"
         id="path286"
         inkscape:connector-curvature="0"
         style="clip-rule:evenodd" /></clipPath><clipPath
       clipPathUnits="userSpaceOnUse"
       id="clipPath298"><path
         d="m 51.36,98.04 739.32,0 0,399.48 -739.32,0 0,-399.48 z"
         id="path300"
         inkscape:connector-curvature="0"
         style="clip-rule:evenodd" /></clipPath><clipPath
       clipPathUnits="userSpaceOnUse"
       id="clipPath312"><path
         d="m 51.36,98.04 739.32,0 0,399.48 -739.32,0 0,-399.48 z"
         id="path314"
         inkscape:connector-curvature="0"
         style="clip-rule:evenodd" /></clipPath></defs><sodipodi:namedview
     pagecolor="#ffffff"
     bordercolor="#666666"
     borderopacity="1"
     objecttolerance="10"
     gridtolerance="10"
     guidetolerance="10"
     inkscape:pageopacity="0"
     inkscape:pageshadow="2"
     inkscape:window-width="1301"
     inkscape:window-height="744"
     id="namedview4"
     showgrid="false"
     fit-margin-top="0"
     fit-margin-left="0"
     fit-margin-right="0"
     fit-margin-bottom="0"
     inkscape:zoom="0.63"
     inkscape:cx="497.80436"
     inkscape:cy="196.06993"
     inkscape:window-x="65"
     inkscape:window-y="24"
     inkscape:window-maximized="1"
     inkscape:current-layer="g10"><inkscape:grid
       type="xygrid"
       id="grid4448"
       originx="-63.367999"
       originy="-121.67052" /></sodipodi:namedview><g
     id="g10"
     inkscape:groupmode="layer"
     inkscape:label="Indegree_ACC"
     transform="matrix(1.25,0,0,-1.25,-63.368,622.7745)"><path
       d="m 51.411,98.053 739.29,0 0,399.45 -739.29,0 0,-399.45 z"
       style="fill:#ffffff;fill-opacity:1;fill-rule:evenodd;stroke:none"
       id="path12"
       inkscape:connector-curvature="0" /><path
       d="m 101.5,210.21 668.18,0 m -668.18,24.08 668.18,0 m -668.18,24.08 668.18,0 m -668.18,23.85 668.18,0 m -668.18,24.07 668.18,0 m -668.18,24.08 668.18,0 m -668.18,24.08 668.18,0 m -668.18,24.07 668.18,0 m -668.18,24.08 668.18,0 m -668.18,24.03 668.18,0"
       style="fill:none;stroke:#d9d9d9;stroke-width:1.4332;stroke-linecap:butt;stroke-linejoin:round;stroke-miterlimit:10;stroke-dasharray:none;stroke-opacity:1"
       id="path14"
       inkscape:connector-curvature="0" /><path
       d="m 117.22,391.59 14.22,0 0,-205.5 -14.22,0 0,205.5 z m 74.3,-13.3 14.21,0 0,-192.2 -14.21,0 0,192.2 z m 74.06,-15.36 14.45,0 0,-176.84 -14.45,0 0,176.84 z m 74.3,-14.45 14.22,0 0,-162.39 -14.22,0 0,162.39 z m 74.29,-12.15 14.22,0 0,-150.24 -14.22,0 0,150.24 z m 74.3,-14.44 14.22,0 0,-135.8 -14.22,0 0,135.8 z m 74.07,-15.83 14.44,0 0,-119.97 -14.44,0 0,119.97 z m 74.29,-13.07 14.22,0 0,-106.9 -14.22,0 0,106.9 z m 74.3,-11 14.21,0 0,-95.9 -14.21,0 0,95.9 z"
       style="fill:#8080ff;fill-opacity:1;fill-rule:nonzero;stroke:#000000;stroke-width:0.80000001;stroke-miterlimit:4;stroke-dasharray:none;stroke-opacity:1"
       id="path16"
       inkscape:connector-curvature="0" /><path
       d="m 131.44,389.3 14.45,0 0,-203.21 -14.45,0 0,203.21 z m 74.29,-9.17 14.22,0 0,-194.04 -14.22,0 0,194.04 z m 74.3,-19.26 14.22,0 0,-174.78 -14.22,0 0,174.78 z m 74.07,-9.63 14.44,0 0,-165.15 -14.44,0 0,165.15 z m 74.29,-14.91 14.45,0 0,-150.24 -14.45,0 0,150.24 z m 74.3,-19.26 14.21,0 0,-130.98 -14.21,0 0,130.98 z m 74.29,-10.32 14.22,0 0,-120.66 -14.22,0 0,120.66 z m 74.07,-10.55 14.45,0 0,-110.11 -14.45,0 0,110.11 z m 74.29,-12.15 14.45,0 0,-97.96 -14.45,0 0,97.96 z"
       style="fill:#aad400;fill-opacity:1;fill-rule:nonzero;stroke:#000000;stroke-width:0.80000001;stroke-miterlimit:4;stroke-dasharray:none;stroke-opacity:1"
       id="path18"
       inkscape:connector-curvature="0" /><path
       d="m 145.89,390.45 14.21,0 0,-204.36 -14.21,0 0,204.36 z m 74.06,-12.61 14.45,0 0,-191.75 -14.45,0 0,191.75 z m 74.3,-15.37 14.21,0 0,-176.38 -14.21,0 0,176.38 z m 74.29,-13.3 14.22,0 0,-163.08 -14.22,0 0,163.08 z m 74.3,-14.21 14.21,0 0,-148.87 -14.21,0 0,148.87 z m 74.06,-15.6 14.45,0 0,-133.27 -14.45,0 0,133.27 z m 74.3,-14.44 14.22,0 0,-118.83 -14.22,0 0,118.83 z m 74.3,-12.16 14.21,0 0,-106.67 -14.21,0 0,106.67 z m 74.29,-10.54 14.22,0 0,-96.13 -14.22,0 0,96.13 z"
       style="fill:#de8787;fill-opacity:1;fill-rule:nonzero;stroke:#000000;stroke-width:0.80000001;stroke-miterlimit:4;stroke-dasharray:none;stroke-opacity:1"
       id="path20"
       inkscape:connector-curvature="0" /><path
       d="m 101.5,186.09 668.18,0"
       style="fill:none;stroke:#d9d9d9;stroke-width:1.4332;stroke-linecap:butt;stroke-linejoin:round;stroke-miterlimit:10;stroke-dasharray:none;stroke-opacity:1"
       id="path22"
       inkscape:connector-curvature="0" /><path
       d="m 101.5,186.09 0,-5.45 m 74.2,5.45 0,-5.45 m 74.29,5.45 0,-5.45 m 74.3,5.45 0,-5.45 m 74.29,5.45 0,-5.45 m 74.07,5.45 0,-5.45 m 74.29,5.45 0,-5.45 m 74.3,5.45 0,-5.45 m 74.29,5.45 0,-5.45 m 74.15,5.45 0,-5.45"
       style="fill:none;stroke:#d9d9d9;stroke-width:1.4332;stroke-linecap:butt;stroke-linejoin:round;stroke-miterlimit:10;stroke-dasharray:none;stroke-opacity:1"
       id="path24"
       inkscape:connector-curvature="0" /><g
       id="g26"><g
         id="g28"
         clip-path="url(#clipPath30)"><text
           transform="matrix(1,0,0,-1,76.848,181.18)"
           style="font-variant:normal;font-weight:normal;font-size:17.20800018px;font-family:Calibri;-inkscape-font-specification:Calibri;writing-mode:lr-tb;fill:#595959;fill-opacity:1;fill-rule:nonzero;stroke:none"
           id="text34"><tspan
             x="0"
             y="0"
             id="tspan36">0</tspan></text>
</g></g><g
       id="g38"><g
         id="g40"
         clip-path="url(#clipPath42)"><text
           transform="matrix(1,0,0,-1,63.84,205.22)"
           style="font-variant:normal;font-weight:normal;font-size:17.18400002px;font-family:Calibri;-inkscape-font-specification:Calibri;writing-mode:lr-tb;fill:#595959;fill-opacity:1;fill-rule:nonzero;stroke:none"
           id="text46"><tspan
             x="0 8.7122879 13.008288"
             y="0"
             sodipodi:role="line"
             id="tspan48">0,1</tspan></text>
</g></g><g
       id="g50"><g
         id="g52"
         clip-path="url(#clipPath54)"><text
           transform="matrix(1,0,0,-1,63.84,229.3)"
           style="font-variant:normal;font-weight:normal;font-size:17.20800018px;font-family:Calibri;-inkscape-font-specification:Calibri;writing-mode:lr-tb;fill:#595959;fill-opacity:1;fill-rule:nonzero;stroke:none"
           id="text58"><tspan
             x="0 8.7244558 13.026456"
             y="0"
             sodipodi:role="line"
             id="tspan60">0,2</tspan></text>
</g></g><g
       id="g62"><g
         id="g64"
         clip-path="url(#clipPath66)"><text
           transform="matrix(1,0,0,-1,63.84,253.34)"
           style="font-variant:normal;font-weight:normal;font-size:17.18400002px;font-family:Calibri;-inkscape-font-specification:Calibri;writing-mode:lr-tb;fill:#595959;fill-opacity:1;fill-rule:nonzero;stroke:none"
           id="text70"><tspan
             x="0 8.7122879 13.008288"
             y="0"
             sodipodi:role="line"
             id="tspan72">0,3</tspan></text>
</g></g><g
       id="g74"><g
         id="g76"
         clip-path="url(#clipPath78)"><text
           transform="matrix(1,0,0,-1,63.84,277.42)"
           style="font-variant:normal;font-weight:normal;font-size:17.20800018px;font-family:Calibri;-inkscape-font-specification:Calibri;writing-mode:lr-tb;fill:#595959;fill-opacity:1;fill-rule:nonzero;stroke:none"
           id="text82"><tspan
             x="0 8.7244558 13.026456"
             y="0"
             sodipodi:role="line"
             id="tspan84">0,4</tspan></text>
</g></g><g
       id="g86"><g
         id="g88"
         clip-path="url(#clipPath90)"><text
           transform="matrix(1,0,0,-1,63.84,301.46)"
           style="font-variant:normal;font-weight:normal;font-size:17.20800018px;font-family:Calibri;-inkscape-font-specification:Calibri;writing-mode:lr-tb;fill:#595959;fill-opacity:1;fill-rule:nonzero;stroke:none"
           id="text94"><tspan
             x="0 8.7244558 13.026456"
             y="0"
             sodipodi:role="line"
             id="tspan96">0,5</tspan></text>
</g></g><g
       id="g98"><g
         id="g100"
         clip-path="url(#clipPath102)"><text
           transform="matrix(1,0,0,-1,63.84,325.54)"
           style="font-variant:normal;font-weight:normal;font-size:17.20800018px;font-family:Calibri;-inkscape-font-specification:Calibri;writing-mode:lr-tb;fill:#595959;fill-opacity:1;fill-rule:nonzero;stroke:none"
           id="text106"><tspan
             x="0 8.7244558 13.026456"
             y="0"
             sodipodi:role="line"
             id="tspan108">0,6</tspan></text>
</g></g><g
       id="g110"><g
         id="g112"
         clip-path="url(#clipPath114)"><text
           transform="matrix(1,0,0,-1,63.84,349.58)"
           style="font-variant:normal;font-weight:normal;font-size:17.20800018px;font-family:Calibri;-inkscape-font-specification:Calibri;writing-mode:lr-tb;fill:#595959;fill-opacity:1;fill-rule:nonzero;stroke:none"
           id="text118"><tspan
             x="0 8.7244558 13.026456"
             y="0"
             sodipodi:role="line"
             id="tspan120">0,7</tspan></text>
</g></g><g
       id="g122"><g
         id="g124"
         clip-path="url(#clipPath126)"><text
           transform="matrix(1,0,0,-1,63.84,373.66)"
           style="font-variant:normal;font-weight:normal;font-size:17.20800018px;font-family:Calibri;-inkscape-font-specification:Calibri;writing-mode:lr-tb;fill:#595959;fill-opacity:1;fill-rule:nonzero;stroke:none"
           id="text130"><tspan
             x="0 8.7244558 13.026456"
             y="0"
             sodipodi:role="line"
             id="tspan132">0,8</tspan></text>
</g></g><g
       id="g134"><g
         id="g136"
         clip-path="url(#clipPath138)"><text
           transform="matrix(1,0,0,-1,63.84,397.7)"
           style="font-variant:normal;font-weight:normal;font-size:17.20800018px;font-family:Calibri;-inkscape-font-specification:Calibri;writing-mode:lr-tb;fill:#595959;fill-opacity:1;fill-rule:nonzero;stroke:none"
           id="text142"><tspan
             x="0 8.7244558 13.026456"
             y="0"
             sodipodi:role="line"
             id="tspan144">0,9</tspan></text>
</g></g><g
       id="g146"><g
         id="g148"
         clip-path="url(#clipPath150)"><text
           transform="matrix(1,0,0,-1,76.848,421.75)"
           style="font-variant:normal;font-weight:normal;font-size:17.18400002px;font-family:Calibri;-inkscape-font-specification:Calibri;writing-mode:lr-tb;fill:#595959;fill-opacity:1;fill-rule:nonzero;stroke:none"
           id="text154"><tspan
             x="0"
             y="0"
             id="tspan156">1</tspan></text>
</g></g><g
       id="g158"><g
         id="g160"
         clip-path="url(#clipPath162)"><text
           transform="matrix(1,0,0,-1,134.28,158.81)"
           style="font-variant:normal;font-weight:normal;font-size:17.20800018px;font-family:Calibri;-inkscape-font-specification:Calibri;writing-mode:lr-tb;fill:#595959;fill-opacity:1;fill-rule:nonzero;stroke:none"
           id="text166"><tspan
             x="0"
             y="0"
             id="tspan168">1</tspan></text>
</g></g><g
       id="g170"><g
         id="g172"
         clip-path="url(#clipPath174)"><text
           transform="matrix(1,0,0,-1,208.54,158.81)"
           style="font-variant:normal;font-weight:normal;font-size:17.20800018px;font-family:Calibri;-inkscape-font-specification:Calibri;writing-mode:lr-tb;fill:#595959;fill-opacity:1;fill-rule:nonzero;stroke:none"
           id="text178"><tspan
             x="0"
             y="0"
             id="tspan180">2</tspan></text>
</g></g><g
       id="g182"><g
         id="g184"
         clip-path="url(#clipPath186)"><text
           transform="matrix(1,0,0,-1,282.79,158.81)"
           style="font-variant:normal;font-weight:normal;font-size:17.20800018px;font-family:Calibri;-inkscape-font-specification:Calibri;writing-mode:lr-tb;fill:#595959;fill-opacity:1;fill-rule:nonzero;stroke:none"
           id="text190"><tspan
             x="0"
             y="0"
             id="tspan192">3</tspan></text>
</g></g><g
       id="g194"><g
         id="g196"
         clip-path="url(#clipPath198)"><text
           transform="matrix(1,0,0,-1,357.05,158.81)"
           style="font-variant:normal;font-weight:normal;font-size:17.20800018px;font-family:Calibri;-inkscape-font-specification:Calibri;writing-mode:lr-tb;fill:#595959;fill-opacity:1;fill-rule:nonzero;stroke:none"
           id="text202"><tspan
             x="0"
             y="0"
             id="tspan204">4</tspan></text>
</g></g><g
       id="g206"><g
         id="g208"
         clip-path="url(#clipPath210)"><text
           transform="matrix(1,0,0,-1,431.3,158.81)"
           style="font-variant:normal;font-weight:normal;font-size:17.20800018px;font-family:Calibri;-inkscape-font-specification:Calibri;writing-mode:lr-tb;fill:#595959;fill-opacity:1;fill-rule:nonzero;stroke:none"
           id="text214"><tspan
             x="0"
             y="0"
             id="tspan216">5</tspan></text>
</g></g><g
       id="g218"><g
         id="g220"
         clip-path="url(#clipPath222)"><text
           transform="matrix(1,0,0,-1,505.54,158.81)"
           style="font-variant:normal;font-weight:normal;font-size:17.20800018px;font-family:Calibri;-inkscape-font-specification:Calibri;writing-mode:lr-tb;fill:#595959;fill-opacity:1;fill-rule:nonzero;stroke:none"
           id="text226"><tspan
             x="0"
             y="0"
             id="tspan228">6</tspan></text>
</g></g><g
       id="g230"><g
         id="g232"
         clip-path="url(#clipPath234)"><text
           transform="matrix(1,0,0,-1,579.79,158.81)"
           style="font-variant:normal;font-weight:normal;font-size:17.20800018px;font-family:Calibri;-inkscape-font-specification:Calibri;writing-mode:lr-tb;fill:#595959;fill-opacity:1;fill-rule:nonzero;stroke:none"
           id="text238"><tspan
             x="0"
             y="0"
             id="tspan240">7</tspan></text>
</g></g><g
       id="g242"><g
         id="g244"
         clip-path="url(#clipPath246)"><text
           transform="matrix(1,0,0,-1,654.05,158.81)"
           style="font-variant:normal;font-weight:normal;font-size:17.20800018px;font-family:Calibri;-inkscape-font-specification:Calibri;writing-mode:lr-tb;fill:#595959;fill-opacity:1;fill-rule:nonzero;stroke:none"
           id="text250"><tspan
             x="0"
             y="0"
             id="tspan252">8</tspan></text>
</g></g><g
       id="g254"><g
         id="g256"
         clip-path="url(#clipPath258)"><text
           transform="matrix(1,0,0,-1,728.3,158.81)"
           style="font-variant:normal;font-weight:normal;font-size:17.20800018px;font-family:Calibri;-inkscape-font-specification:Calibri;writing-mode:lr-tb;fill:#595959;fill-opacity:1;fill-rule:nonzero;stroke:none"
           id="text262"><tspan
             x="0"
             y="0"
             id="tspan264">9</tspan></text>
</g></g><g
       id="g266"><g
         id="g268"
         clip-path="url(#clipPath270)"><text
           transform="matrix(1,0,0,-1,272.14,457.7)"
           style="font-variant:normal;font-weight:normal;font-size:26.83200073px;font-family:Calibri;-inkscape-font-specification:Calibri;writing-mode:lr-tb;fill:#595959;fill-opacity:1;fill-rule:nonzero;stroke:none"
           id="text274"><tspan
             x="0 15.133248 27.073488 40.435825 49.317215 62.169743 74.539299 87.901634 93.321693 105.63758 114.6263 123.99067 138.07747 149.29324 158.28197 172.2346 181.1965 194.55884 200.62286 216.26591 227.50853 238.75113 252.73061 261.6925 274.54501 285.7608"
             y="0"
             sodipodi:role="line"
             id="tspan276">Average Structure Accuracy</tspan></text>
</g></g><path
       d="m 248.84,113.96 9.4461,0 0,9.4461 -9.4461,0 0,-9.4461 z"
       style="fill:#9393ff;fill-opacity:1;fill-rule:evenodd;stroke:#000000;stroke-width:0.80000001;stroke-miterlimit:4;stroke-dasharray:none;stroke-opacity:1"
       id="path278"
       inkscape:connector-curvature="0" /><g
       id="g280"><g
         id="g282"
         clip-path="url(#clipPath284)"><text
           transform="matrix(1,0,0,-1,262.32,113.76)"
           style="font-variant:normal;font-weight:normal;font-size:17.20800018px;font-family:Calibri;-inkscape-font-specification:Calibri;writing-mode:lr-tb;fill:#595959;fill-opacity:1;fill-rule:nonzero;stroke:none"
           id="text288"><tspan
             sodipodi:role="line"
             id="tspan290"
             x="0"
             y="0">BESTFIT</tspan></text>
</g></g><path
       d="m 381,113.96 9.4461,0 0,9.4461 -9.4461,0 0,-9.4461 z"
       style="fill:#aad400;fill-opacity:1;fill-rule:evenodd;stroke:#000000;stroke-width:0.80000001;stroke-miterlimit:4;stroke-dasharray:none;stroke-opacity:1"
       id="path292"
       inkscape:connector-curvature="0" /><g
       id="g294"><g
         id="g296"
         clip-path="url(#clipPath298)"><text
           transform="matrix(1,0,0,-1,394.51,113.76)"
           style="font-variant:normal;font-weight:normal;font-size:17.20800018px;font-family:Calibri;-inkscape-font-specification:Calibri;writing-mode:lr-tb;fill:#595959;fill-opacity:1;fill-rule:nonzero;stroke:none"
           id="text302"><tspan
             sodipodi:role="line"
             id="tspan304"
             x="0"
             y="0">FULLFIT</tspan></text>
</g></g><path
       d="m 513.16,113.96 9.4461,0 0,9.4461 -9.4461,0 0,-9.4461 z"
       style="fill:#de8787;fill-opacity:1;fill-rule:evenodd;stroke:#000000;stroke-width:0.80000001;stroke-miterlimit:4;stroke-dasharray:none;stroke-opacity:1"
       id="path306"
       inkscape:connector-curvature="0" /><g
       id="g308"><g
         id="g310"
         clip-path="url(#clipPath312)"><text
           transform="matrix(1,0,0,-1,526.68,113.76)"
           style="font-variant:normal;font-weight:normal;font-size:17.20800018px;font-family:Calibri;-inkscape-font-specification:Calibri;writing-mode:lr-tb;fill:#595959;fill-opacity:1;fill-rule:nonzero;stroke:none"
           id="text316"><tspan
             sodipodi:role="line"
             id="tspan318"
             x="0"
             y="0">REVEAL</tspan></text>
</g></g><path
       d="m 51.411,98.053 739.29,0 0,399.45 -739.29,0 0,-399.45 z"
       style="fill:none;stroke:#d9d9d9;stroke-width:1.4332;stroke-linecap:butt;stroke-linejoin:round;stroke-miterlimit:10;stroke-dasharray:none;stroke-opacity:1"
       id="path320"
       inkscape:connector-curvature="0" /><path
       style="fill:#ff0000;fill-rule:evenodd;stroke:#ff0000;stroke-width:1.99839997;stroke-linecap:butt;stroke-linejoin:miter;stroke-miterlimit:4;stroke-dasharray:none;stroke-opacity:0.97959182"
       d="M 118.44957,391.22701 752.0006,279.99804"
       id="path4450"
       inkscape:connector-curvature="0" /></g></svg>